<svg xmlns="http://www.w3.org/2000/svg" xmlns:xlink="http://www.w3.org/1999/xlink" width="108.914" height="108.914" viewBox="0 0 108.914 108.914">
  <defs>
    <filter id="Trazado_874925" x="0" y="0" width="108.914" height="108.914" filterUnits="userSpaceOnUse">
      <feOffset dy="3" input="SourceAlpha"/>
      <feGaussianBlur stdDeviation="3" result="blur"/>
      <feFlood flood-opacity="0.161"/>
      <feComposite operator="in" in2="blur"/>
      <feComposite in="SourceGraphic"/>
    </filter>
  </defs>
  <g id="Grupo_1113850" data-name="Grupo 1113850" transform="translate(6584.316 9037.861)">
    <g transform="matrix(1, 0, 0, 1, -6584.32, -9037.86)" filter="url(#Trazado_874925)">
      <g id="Trazado_874925-2" data-name="Trazado 874925" transform="translate(9 6)" fill="#fecfb5" opacity="0.859">
        <path d="M 45.45676803588867 89.41407012939453 C 39.52198028564453 89.41407012939453 33.76551818847656 88.25206756591797 28.34726715087891 85.96034240722656 C 23.11311721801758 83.74648284912109 18.41204261779785 80.57682800292969 14.37464332580566 76.5394287109375 C 10.33724308013916 72.50202941894531 7.167593002319336 67.80095672607422 4.953730583190918 62.56679534912109 C 2.662005424499512 57.14855575561523 1.500005483627319 51.39208221435547 1.500005483627319 45.45729446411133 C 1.500005483627319 39.52198028564453 2.662005424499512 33.76551818847656 4.953730583190918 28.34726905822754 C 7.167593002319336 23.11310577392578 10.33724308013916 18.41203117370605 14.37464332580566 14.37464332580566 C 18.41204261779785 10.33724403381348 23.11311721801758 7.167593955993652 28.34726715087891 4.953731060028076 C 33.76551818847656 2.662006139755249 39.52198028564453 1.500006198883057 45.45676803588867 1.500006198883057 C 51.39155578613281 1.500006198883057 57.14802932739258 2.662006139755249 62.56626892089844 4.953731060028076 C 67.80043029785156 7.167593955993652 72.50150299072266 10.33724403381348 76.53890228271484 14.37464332580566 C 80.57630920410156 18.41203117370605 83.74595642089844 23.11310577392578 85.95981597900391 28.34726905822754 C 88.25154113769531 33.76551818847656 89.41354370117188 39.52198028564453 89.41354370117188 45.45676803588867 C 89.41354370117188 51.39208221435547 88.25154113769531 57.14855575561523 85.95981597900391 62.56679534912109 C 83.74595642089844 67.80095672607422 80.57630920410156 72.50202941894531 76.53890228271484 76.5394287109375 C 72.50150299072266 80.57682800292969 67.80043029785156 83.74648284912109 62.56626892089844 85.96034240722656 C 57.14802932739258 88.25206756591797 51.39155578613281 89.41407012939453 45.45676803588867 89.41407012939453 Z" stroke="none"/>
        <path d="M 45.45676803588867 3 C 39.72381210327148 3 34.1639404296875 4.12213134765625 28.93159484863281 6.335227966308594 C 23.87622833251953 8.473472595214844 19.33542633056641 11.53517150878906 15.43529510498047 15.435302734375 C 11.53517150878906 19.33543395996094 8.473464965820312 23.87622833251953 6.335227966308594 28.93160247802734 C 4.122123718261719 34.16394424438477 3 39.72381591796875 3 45.4572868347168 C 3 51.19024658203125 4.122123718261719 56.75011825561523 6.335227966308594 61.98246002197266 C 8.473464965820312 67.03782653808594 11.53517150878906 71.57862854003906 15.43529510498047 75.478759765625 C 19.33542633056641 79.37889099121094 23.87622833251953 82.44058990478516 28.93159484863281 84.57883453369141 C 34.1639404296875 86.79193115234375 39.72381210327148 87.9140625 45.45676803588867 87.9140625 C 51.18972396850586 87.9140625 56.74959564208984 86.79193115234375 61.98194122314453 84.57883453369141 C 67.03730773925781 82.44058990478516 71.57810974121094 79.37889099121094 75.47824096679688 75.478759765625 C 79.37837219238281 71.57862854003906 82.44007110595703 67.03782653808594 84.57830810546875 61.98246002197266 C 86.79141235351562 56.75011825561523 87.91353607177734 51.19024658203125 87.91353607177734 45.4567756652832 C 87.91353607177734 39.72381591796875 86.79141235351562 34.16394424438477 84.57830810546875 28.93160247802734 C 82.44007110595703 23.87622833251953 79.37837219238281 19.33543395996094 75.47824096679688 15.435302734375 C 71.57810974121094 11.53517150878906 67.03730773925781 8.473472595214844 61.98194122314453 6.335227966308594 C 56.74959564208984 4.12213134765625 51.18972396850586 3 45.45676803588867 3 M 45.45676803588867 0 C 70.56185150146484 0 90.91353607177734 20.35169219970703 90.91353607177734 45.4567756652832 L 90.91353607177734 45.4572868347168 C 90.91353607177734 70.5623779296875 70.56185150146484 90.9140625 45.45676803588867 90.9140625 C 20.3516845703125 90.9140625 0 70.5623779296875 0 45.4572868347168 L 0 45.4567756652832 C 0 20.35169219970703 20.3516845703125 0 45.45676803588867 0 Z" stroke="none" fill="#fff"/>
      </g>
    </g>
    <g id="Grupo_1113849" data-name="Grupo 1113849" transform="translate(-6573.43 -9022.98)">
      <path id="Trazado_906774" data-name="Trazado 906774" d="M91.321,31.4a3.866,3.866,0,1,1,3.866-3.866A3.87,3.87,0,0,1,91.321,31.4Zm4.3-3.866a4.3,4.3,0,1,0-4.3,4.3A4.3,4.3,0,0,0,95.619,27.534Zm-4.3,9.535a9.534,9.534,0,1,0-9.534-9.535A9.544,9.544,0,0,0,91.321,37.069ZM85,36.286A25.541,25.541,0,0,1,71.59,27.811l-.23-.277.23-.277A25.55,25.55,0,0,1,85,18.782l2.1-.53-1.732,1.3a9.956,9.956,0,0,0,0,15.971l1.732,1.3Zm16.287-8.752a9.956,9.956,0,0,0-4.01-7.986l-1.732-1.3,2.1.53a25.541,25.541,0,0,1,13.409,8.475l.23.277-.23.277a25.55,25.55,0,0,1-13.409,8.475l-2.1.53,1.732-1.3A9.963,9.963,0,0,0,101.287,27.534Z" transform="translate(-48.207 -7.153)" fill="#87d4ed" fill-rule="evenodd"/>
      <path id="Trazado_906775" data-name="Trazado 906775" d="M177.344,37.069a9.534,9.534,0,1,1,9.534-9.535A9.544,9.544,0,0,1,177.344,37.069Zm4.3-9.535a4.3,4.3,0,1,0-4.3,4.3A4.3,4.3,0,0,0,181.642,27.534Z" transform="translate(-134.23 -7.153)" fill="#f1f1f2" fill-rule="evenodd"/>
      <path id="Trazado_906776" data-name="Trazado 906776" d="M25.31,389.91H36.563v11.253H25.31Z" transform="translate(-7.135 -338.857)" fill="#ff5a5a" fill-rule="evenodd"/>
      <path id="Trazado_906777" data-name="Trazado 906777" d="M203.96,389.91h11.252v11.253H203.96Z" transform="translate(-166.472 -338.857)" fill="#fedf30" fill-rule="evenodd"/>
      <path id="Trazado_906778" data-name="Trazado 906778" d="M382.6,389.91h11.253v11.253H382.6Z" transform="translate(-325.8 -338.857)" fill="#05e39c" fill-rule="evenodd"/>
      <path id="Trazado_906779" data-name="Trazado 906779" d="M58.931,56.615a.649.649,0,1,1,.918-.917l1.94,1.94,3.749-3.749a.648.648,0,0,1,.917.917l-4.207,4.209a.65.65,0,0,1-.917,0Zm8.69,5.258V51.485H57.232V61.873Zm.649-11.685H56.584a.649.649,0,0,0-.649.649V62.521a.649.649,0,0,0,.649.649H68.269a.649.649,0,0,0,.649-.649V50.836A.649.649,0,0,0,68.269,50.188Zm-28.65,6.427a.648.648,0,0,1,.917-.917l1.94,1.94,3.749-3.749a.649.649,0,0,1,.918.917l-4.207,4.209a.651.651,0,0,1-.918,0Zm8.688,5.258V51.485H37.92V61.873Zm.649-11.685H37.272a.648.648,0,0,0-.649.649V62.521a.648.648,0,0,0,.649.649H48.956a.648.648,0,0,0,.649-.649V50.836A.648.648,0,0,0,48.956,50.188Zm-28.65,6.427a.649.649,0,0,1,.918-.917l1.94,1.94,3.749-3.749a.648.648,0,1,1,.917.917l-4.207,4.209a.651.651,0,0,1-.918,0ZM29,61.873V51.485H18.607V61.873Zm.649-11.685H17.959a.649.649,0,0,0-.649.649V62.521a.649.649,0,0,0,.649.649H29.644a.649.649,0,0,0,.649-.649V50.836A.649.649,0,0,0,29.644,50.188ZM61.778,47.2V41.178H43.762V47.2a.649.649,0,0,1-1.3,0V41.178H24.45V47.2a.649.649,0,0,1-1.3,0V40.53a.648.648,0,0,1,.649-.649H42.465V33.858a.649.649,0,0,1,1.3,0v6.023H62.427a.648.648,0,0,1,.649.649V47.2a.649.649,0,0,1-1.3,0ZM43.114,16.948a3.433,3.433,0,1,1-3.433,3.433A3.437,3.437,0,0,1,43.114,16.948Zm0,8.163a4.73,4.73,0,1,0-4.731-4.731A4.736,4.736,0,0,0,43.114,25.112ZM36.9,12.049a10.39,10.39,0,0,0,0,16.666,25.1,25.1,0,0,1-13.182-8.333A25.1,25.1,0,0,1,36.9,12.049Zm25.612,8.332a25.116,25.116,0,0,1-13.182,8.333,10.39,10.39,0,0,0,0-16.666A25.116,25.116,0,0,1,62.511,20.381Zm-10.3,0a9.1,9.1,0,1,0-9.1,9.1A9.111,9.111,0,0,0,52.215,20.381Zm-9.384,10.4c.094,0,.188,0,.282,0s.189,0,.283,0a26.4,26.4,0,0,0,20.458-9.991.651.651,0,0,0,0-.81A26.4,26.4,0,0,0,43.394,9.984c-.079,0-.16,0-.24,0h-.08q-.12,0-.24,0a26.4,26.4,0,0,0-20.461,9.991.651.651,0,0,0,0,.81A26.4,26.4,0,0,0,42.832,30.776Z" fill-rule="evenodd"/>
    </g>
  </g>
</svg>
