<svg xmlns="http://www.w3.org/2000/svg" xmlns:xlink="http://www.w3.org/1999/xlink" width="111.381" height="111.381" viewBox="0 0 111.381 111.381">
  <defs>
    <filter id="Trazado_873672" x="0" y="0" width="111.381" height="111.381" filterUnits="userSpaceOnUse">
      <feOffset dy="3" input="SourceAlpha"/>
      <feGaussianBlur stdDeviation="3" result="blur"/>
      <feFlood flood-opacity="0.161"/>
      <feComposite operator="in" in2="blur"/>
      <feComposite in="SourceGraphic"/>
    </filter>
    <clipPath id="clip-path">
      <path id="Trazado_906690" data-name="Trazado 906690" d="M0,.5H52.925V53.425H0Z" transform="translate(0 0)" fill="none"/>
    </clipPath>
  </defs>
  <g id="Grupo_1113827" data-name="Grupo 1113827" transform="translate(11072 11387)">
    <g id="Grupo_1113821" data-name="Grupo 1113821" transform="translate(0 -160)">
      <g id="Rectángulo_400898" data-name="Rectángulo 400898" transform="translate(-11063 -11221)" fill="#fff" stroke="#fff" stroke-width="3" opacity="0.98">
        <rect width="93.381" height="93.381" rx="46.691" stroke="none"/>
        <rect x="1.5" y="1.5" width="90.381" height="90.381" rx="45.191" fill="none"/>
      </g>
      <g transform="matrix(1, 0, 0, 1, -11072, -11227)" filter="url(#Trazado_873672)">
        <g id="Trazado_873672-2" data-name="Trazado 873672" transform="translate(9 6)" fill="none" opacity="0.95">
          <path d="M46.691,0A46.691,46.691,0,1,1,0,46.691,46.691,46.691,0,0,1,46.691,0Z" stroke="none"/>
          <path d="M 46.690673828125 3 C 40.79114532470703 3 35.06968688964844 4.154762268066406 29.68521499633789 6.432205200195312 C 24.48291778564453 8.632591247558594 19.81014251708984 11.78325653076172 15.79669952392578 15.79669952392578 C 11.78325653076172 19.81014251708984 8.632591247558594 24.48291778564453 6.432205200195312 29.68521499633789 C 4.154762268066406 35.06968688964844 3 40.79114532470703 3 46.690673828125 C 3 52.59020233154297 4.154762268066406 58.31166076660156 6.432205200195312 63.69614410400391 C 8.632591247558594 68.89842987060547 11.78325653076172 73.57120513916016 15.79669952392578 77.58464813232422 C 19.81014251708984 81.59809112548828 24.48291778564453 84.74875640869141 29.68521499633789 86.94914245605469 C 35.06968688964844 89.22658538818359 40.79114532470703 90.38134765625 46.690673828125 90.38134765625 C 52.59020233154297 90.38134765625 58.31167221069336 89.22658538818359 63.69614410400391 86.94914245605469 C 68.89842987060547 84.74875640869141 73.57120513916016 81.59809112548828 77.58464813232422 77.58464813232422 C 81.59809112548828 73.57120513916016 84.74875640869141 68.89842987060547 86.94914245605469 63.69614410400391 C 89.22658538818359 58.31167221069336 90.38134765625 52.59020233154297 90.38134765625 46.690673828125 C 90.38134765625 40.79114532470703 89.22658538818359 35.06968688964844 86.94914245605469 29.68521499633789 C 84.74875640869141 24.48291778564453 81.59809112548828 19.81014251708984 77.58464813232422 15.79669952392578 C 73.57120513916016 11.78325653076172 68.89842987060547 8.632591247558594 63.69614410400391 6.432205200195312 C 58.31166076660156 4.154762268066406 52.59020233154297 3 46.690673828125 3 M 46.690673828125 0 C 72.47723388671875 0 93.38134765625 20.90412902832031 93.38134765625 46.690673828125 C 93.38134765625 72.47723388671875 72.47723388671875 93.38134765625 46.690673828125 93.38134765625 C 20.90412902832031 93.38134765625 0 72.47723388671875 0 46.690673828125 C 0 20.90412902832031 20.90412902832031 0 46.690673828125 0 Z" stroke="none" fill="#fff"/>
        </g>
      </g>
    </g>
    <g id="Grupo_1113819" data-name="Grupo 1113819" transform="translate(-11043 -11361.5)" clip-path="url(#clip-path)">
      <path id="Trazado_906683" data-name="Trazado 906683" d="M18.744,44.988H5.513A5.518,5.518,0,0,1,0,39.475V13.013A5.518,5.518,0,0,1,5.513,7.5H18.744a5.518,5.518,0,0,1,5.513,5.513V39.475A5.518,5.518,0,0,1,18.744,44.988ZM5.513,9.705a3.312,3.312,0,0,0-3.308,3.308V39.475a3.312,3.312,0,0,0,3.308,3.308H18.744a3.312,3.312,0,0,0,3.308-3.308V13.013a3.312,3.312,0,0,0-3.308-3.308Z" transform="translate(0 8.436)" fill="#1a2f50"/>
      <path id="Trazado_906684" data-name="Trazado 906684" d="M16.334,20.526H3.1a1.1,1.1,0,0,1-1.1-1.1V10.6A1.1,1.1,0,0,1,3.1,9.5H16.334a1.1,1.1,0,0,1,1.1,1.1v8.821A1.1,1.1,0,0,1,16.334,20.526ZM4.205,18.321H15.231V11.705H4.205Z" transform="translate(2.41 10.847)" fill="#1a2f50"/>
      <path id="Trazado_906685" data-name="Trazado 906685" d="M9.718,30.936a7.718,7.718,0,1,1,7.718-7.718A7.727,7.727,0,0,1,9.718,30.936Zm0-13.231a5.513,5.513,0,1,0,5.513,5.513A5.518,5.518,0,0,0,9.718,17.705Z" transform="translate(2.41 18.078)" fill="#1a2f50"/>
      <path id="Trazado_906686" data-name="Trazado 906686" d="M5.1,24.115a1.1,1.1,0,0,1-.781-1.881l4.41-4.41a1.1,1.1,0,0,1,1.559,1.559l-4.41,4.41a1.1,1.1,0,0,1-.778.322Z" transform="translate(4.821 20.489)" fill="#1a2f50"/>
      <path id="Trazado_906687" data-name="Trazado 906687" d="M33.668,53.425A11.039,11.039,0,0,1,22.642,42.4V10.423a7.718,7.718,0,0,0-15.436,0,1.1,1.1,0,1,1-2.205,0,9.923,9.923,0,0,1,19.847,0V42.4a8.821,8.821,0,1,0,17.642,0V28.521l-1.883-1.883a1.108,1.108,0,0,1-.291-1.047l2.205-8.821a1.147,1.147,0,0,1,2.141,0l2.205,8.821a1.108,1.108,0,0,1-.291,1.047l-1.881,1.883V42.4A11.039,11.039,0,0,1,33.668,53.425Zm8.94-27.9.984.984.984-.984-.984-3.936Z" transform="translate(6.026 0)" fill="#1a2f50"/>
      <path id="Trazado_906688" data-name="Trazado 906688" d="M18.513,39.73A5.518,5.518,0,0,1,13,34.217V27.6a1.1,1.1,0,0,1,2.205,0v6.616a3.308,3.308,0,1,0,6.616,0V17.032l-1.883-1.883a1.108,1.108,0,0,1-.291-1.047L21.852,5.28a1.147,1.147,0,0,1,2.141,0L26.2,14.1a1.108,1.108,0,0,1-.291,1.047l-1.881,1.883V34.217A5.518,5.518,0,0,1,18.513,39.73Zm3.427-25.7.984.984.984-.984L22.923,10.1Z" transform="translate(15.668 4.874)" fill="#1a2f50"/>
      <path id="Trazado_906689" data-name="Trazado 906689" d="M9.513,13.321H5.1a1.1,1.1,0,0,1-1.1-1.1V5.6A1.1,1.1,0,0,1,5.1,4.5h4.41a1.1,1.1,0,0,1,1.1,1.1v6.616A1.1,1.1,0,0,1,9.513,13.321ZM6.205,11.116H8.41V6.705H6.205Z" transform="translate(4.821 4.821)" fill="#1a2f50"/>
    </g>
  </g>
</svg>
