<svg xmlns="http://www.w3.org/2000/svg" width="115.769" height="115.769" viewBox="0 0 115.769 115.769">
  <g id="Grupo_1113836" data-name="Grupo 1113836" transform="translate(-1268.051 -387)">
    <rect id="Rectángulo_404722" data-name="Rectángulo 404722" width="115.769" height="115.769" transform="translate(1268.051 387)" fill="none"/>
    <g id="Grupo_1113835" data-name="Grupo 1113835" transform="translate(1225.302 391.501)">
      <g id="Grupo_1113833" data-name="Grupo 1113833" transform="translate(64.749 7.499)">
        <path id="Trazado_906705" data-name="Trazado 906705" d="M64.75,11.614V94.255a4.127,4.127,0,0,1,4.115-4.094H134.7V7.5H68.865a4.127,4.127,0,0,0-4.115,4.115ZM84.638,71.659V66.173h31.547v5.486Zm2.743-22.631V42.856H84.638V37.369h2.743V36a13.034,13.034,0,0,1,10.287-12.74,2.743,2.743,0,0,1,5.486,0A13.034,13.034,0,0,1,113.442,36v1.372h2.743v5.486h-2.743v6.172H108.9a8.872,8.872,0,0,1-.545,1.316l3.215,3.215-3.879,3.879-3.215-3.215a8.875,8.875,0,0,1-1.316.545v4.546H97.668V54.769a8.875,8.875,0,0,1-1.316-.545l-3.215,3.215-3.879-3.879,3.215-3.215a8.867,8.867,0,0,1-.545-1.316Z" transform="translate(-64.75 -7.499)" fill="#86e895" fill-rule="evenodd"/>
        <rect id="Rectángulo_404819" data-name="Rectángulo 404819" width="31.547" height="5.486" transform="translate(19.888 58.674)" fill="#fff"/>
        <path id="Trazado_906706" data-name="Trazado 906706" d="M131.958,459.5H68.865a4.127,4.127,0,0,0-4.115,4.094v.021a4.127,4.127,0,0,0,4.115,4.115h63.094Z" transform="translate(-64.75 -376.838)" fill="#fff" fill-rule="evenodd"/>
        <path id="Trazado_906707" data-name="Trazado 906707" d="M244.75,81.411V95.523h5.486V81.411a2.743,2.743,0,1,0-5.486,0Z" transform="translate(-211.831 -65.653)" fill="#ffc45c" fill-rule="evenodd"/>
        <path id="Trazado_906708" data-name="Trazado 906708" d="M204.273,93.668V107.78H214.56v-1.372a13.034,13.034,0,0,0-10.287-12.74Zm-5.486,0a13.034,13.034,0,0,0-10.287,12.74v1.372h10.287Z" transform="translate(-165.868 -77.909)" fill="#fe8" fill-rule="evenodd"/>
        <path id="Trazado_906709" data-name="Trazado 906709" d="M198.787,93.668a13.034,13.034,0,0,0-10.287,12.74v1.372h4.115v-1.372a13.02,13.02,0,0,1,6.172-11.08Z" transform="translate(-165.868 -77.909)" fill="#ffe000" fill-rule="evenodd"/>
        <rect id="Rectángulo_404820" data-name="Rectángulo 404820" width="4.115" height="5.486" transform="translate(19.888 58.674)" fill="#83f2f8"/>
        <path id="Trazado_906710" data-name="Trazado 906710" d="M64.75,11.615V94.256a4.127,4.127,0,0,1,4.115-4.094V11.615A4.127,4.127,0,0,1,72.98,7.5H68.865A4.127,4.127,0,0,0,64.75,11.615Z" transform="translate(-64.75 -7.5)" fill="#00d23d" fill-rule="evenodd"/>
        <path id="Trazado_906711" data-name="Trazado 906711" d="M74.35,459.5H68.864a4.127,4.127,0,0,0-4.115,4.094v.021a4.127,4.127,0,0,0,4.115,4.115H74.35a4.127,4.127,0,0,1-4.115-4.115v-.021A4.127,4.127,0,0,1,74.35,459.5Z" transform="translate(-64.749 -376.838)" fill="#83f2f8" fill-rule="evenodd"/>
        <path id="Trazado_906712" data-name="Trazado 906712" d="M201.53,200.831a3.429,3.429,0,1,1-2.561,1.149,3.42,3.42,0,0,1,2.561-1.149ZM197.471,212.2a8.867,8.867,0,0,0,1.316.545v4.546h5.486v-4.546a8.875,8.875,0,0,0,1.316-.545l3.215,3.215,3.879-3.879-3.215-3.215a8.875,8.875,0,0,0,.545-1.316h4.546v-6.172H188.5V207h4.546a8.875,8.875,0,0,0,.545,1.316l-3.215,3.215,3.879,3.879Z" transform="translate(-165.868 -165.474)" fill="#a1c5e4" fill-rule="evenodd"/>
        <circle id="Elipse_11909" data-name="Elipse 11909" cx="3.429" cy="3.429" r="3.429" transform="translate(30.812 38.786) rotate(-45)" fill="#86e895"/>
        <path id="Trazado_906713" data-name="Trazado 906713" d="M192.614,200.831H188.5V207h4.115v-6.172Zm6.172,12.345v4.115h5.486v-4.115Zm-8.41-1.641,3.879,3.879,2.721-2.721-3.879-3.879Z" transform="translate(-165.868 -165.474)" fill="#4796c6" fill-rule="evenodd"/>
        <rect id="Rectángulo_404821" data-name="Rectángulo 404821" width="31.547" height="5.486" transform="translate(19.888 29.87)" fill="#ffc45c"/>
        <rect id="Rectángulo_404822" data-name="Rectángulo 404822" width="4.115" height="5.486" transform="translate(19.888 29.87)" fill="#ff8e45"/>
        <path id="Trazado_906714" data-name="Trazado 906714" d="M417.25,32.743V30m0,8.23V35.486" transform="translate(-352.785 -25.885)" fill="none" stroke="#fff" stroke-miterlimit="22.926" stroke-width="1" fill-rule="evenodd"/>
      </g>
      <g id="Grupo_1113834" data-name="Grupo 1113834" transform="translate(64.749 7.499)">
        <path id="Trazado_906715" data-name="Trazado 906715" d="M64.75,94.277V21.216m0-2.743V11.615A4.127,4.127,0,0,1,68.865,7.5H134.7V90.162H68.865a4.115,4.115,0,0,0,0,8.23h53.492m2.743,0h10.973m-4.115-8.23v8.23" transform="translate(-64.75 -7.5)" fill="none" stroke="#000" stroke-miterlimit="22.926" stroke-width="1" fill-rule="evenodd"/>
        <rect id="Rectángulo_404823" data-name="Rectángulo 404823" width="31.547" height="5.486" transform="translate(19.888 29.87)" fill="none" stroke="#000" stroke-miterlimit="22.926" stroke-width="1"/>
        <path id="Trazado_906716" data-name="Trazado 906716" d="M188.5,107.78v-1.372a13.034,13.034,0,0,1,10.287-12.74m5.487,0a13.034,13.034,0,0,1,10.287,12.74v1.372" transform="translate(-165.868 -77.91)" fill="none" stroke="#000" stroke-miterlimit="22.926" stroke-width="1" fill-rule="evenodd"/>
        <path id="Trazado_906717" data-name="Trazado 906717" d="M244.75,95.523V81.411a2.743,2.743,0,1,1,5.486,0V95.523" transform="translate(-211.832 -65.653)" fill="none" stroke="#000" stroke-miterlimit="22.926" stroke-width="1" fill-rule="evenodd"/>
        <rect id="Rectángulo_404824" data-name="Rectángulo 404824" width="31.547" height="5.486" transform="translate(19.888 58.674)" fill="none" stroke="#000" stroke-miterlimit="22.926" stroke-width="1"/>
        <line id="Línea_589" data-name="Línea 589" x2="23.317" transform="translate(24.003 69.646)" fill="none" stroke="#000" stroke-miterlimit="22.926" stroke-width="1"/>
        <path id="Trazado_906718" data-name="Trazado 906718" d="M204.959,204.261a3.429,3.429,0,1,1-3.429-3.429,3.429,3.429,0,0,1,3.429,3.429Zm9.6-3.191V207h-4.546a8.875,8.875,0,0,1-.545,1.316l3.215,3.215-3.879,3.879L205.59,212.2a8.872,8.872,0,0,1-1.316.545v4.546h-5.486v-4.546a8.872,8.872,0,0,1-1.316-.545l-3.215,3.215-3.879-3.879,3.215-3.215a8.867,8.867,0,0,1-.545-1.316H188.5V201.07" transform="translate(-165.869 -165.475)" fill="none" stroke="#000" stroke-miterlimit="22.926" stroke-width="1" fill-rule="evenodd"/>
      </g>
    </g>
  </g>
</svg>
