<svg xmlns="http://www.w3.org/2000/svg" width="85" height="85" viewBox="0 0 85 85">
  <g id="Grupo_1113832" data-name="Grupo 1113832" transform="translate(-180 -843)">
    <rect id="Rectángulo_404722" data-name="Rectángulo 404722" width="85" height="85" transform="translate(180 843)" fill="none"/>
    <g id="Grupo_1113831" data-name="Grupo 1113831" transform="translate(187.484 852)">
      <g id="Grupo_1113829" data-name="Grupo 1113829" transform="translate(5.416 0.9)">
        <path id="Trazado_906691" data-name="Trazado 906691" d="M6.266,1.75H53.757V65.811H6.266Z" transform="translate(-6.266 -1.75)" fill="#474f54"/>
        <path id="Trazado_906692" data-name="Trazado 906692" d="M14.108,13.03H53.53V23.087H14.108Z" transform="translate(-10.073 -7.226)" fill="#e9f3fb"/>
        <path id="Trazado_906693" data-name="Trazado 906693" d="M115.909,91.475h-6.175v4.051l3.087,3.087,3.087-3.087Z" transform="translate(-56.495 -45.307)" fill="#e9f3fb"/>
        <path id="Trazado_906694" data-name="Trazado 906694" d="M112.821,32.574a3.087,3.087,0,0,0-3.087,3.087V38.7h6.175V35.661A3.087,3.087,0,0,0,112.821,32.574Z" transform="translate(-56.495 -16.714)" fill="#474f54"/>
        <path id="Trazado_906695" data-name="Trazado 906695" d="M109.734,44.475h6.175V68.659h-6.175Z" transform="translate(-56.495 -22.491)" fill="#9af"/>
        <path id="Trazado_906696" data-name="Trazado 906696" d="M38.05,54.022l-3.364,5.842L40.528,56.5l1.753,6.51,1.753-6.51,5.842,3.364-3.364-5.842,6.51-1.753-6.51-1.753,3.364-5.842-5.842,3.364-1.753-6.51-1.753,6.51-5.842-3.364,3.364,5.842-6.51,1.753Z" transform="translate(-18.535 -21.06)" fill="#ffd944"/>
      </g>
      <g id="Grupo_1113830" data-name="Grupo 1113830" transform="translate(4.516 0)">
        <path id="Trazado_906697" data-name="Trazado 906697" d="M98.614,96.948V93.26a.9.9,0,0,0-1.8,0v3.688a.9.9,0,0,0,1.8,0Z" transform="translate(-49.322 -44.836)"/>
        <path id="Trazado_906698" data-name="Trazado 906698" d="M52.908,42.7a.9.9,0,0,0,.9-.9V.9a.9.9,0,0,0-.9-.9H5.416a.9.9,0,0,0-.9.9V64.962a.9.9,0,0,0,.9.9H52.909a.9.9,0,0,0,.9-.9V58.736a.9.9,0,1,0-1.8,0v5.326H6.317V1.8H52.009v40a.9.9,0,0,0,.9.9Z" transform="translate(-4.516 0)"/>
        <path id="Trazado_906699" data-name="Trazado 906699" d="M18.832,13.08a.9.9,0,1,0,0-1.8H13.257a.9.9,0,0,0-.9.9V22.236a.9.9,0,0,0,.9.9H52.68a.9.9,0,0,0,.9-.9V12.179a.9.9,0,0,0-.9-.9H26.323a.9.9,0,1,0,0,1.8H51.779v8.256H14.158V13.08Z" transform="translate(-8.322 -5.475)"/>
        <path id="Trazado_906700" data-name="Trazado 906700" d="M52.214,95.774a.9.9,0,1,0,0-1.8H29.257a.9.9,0,1,0,0,1.8Z" transform="translate(-16.09 -45.619)"/>
        <path id="Trazado_906701" data-name="Trazado 906701" d="M52.214,105.4a.9.9,0,1,0,0-1.8H29.257a.9.9,0,1,0,0,1.8Z" transform="translate(-16.09 -50.293)"/>
        <path id="Trazado_906702" data-name="Trazado 906702" d="M52.214,115.022a.9.9,0,1,0,0-1.8H29.257a.9.9,0,1,0,0,1.8Z" transform="translate(-16.09 -54.963)"/>
        <path id="Trazado_906703" data-name="Trazado 906703" d="M111.972,70.072a.9.9,0,0,0,.637-.264L115.7,66.72a.9.9,0,0,0,.263-.637V34.812a3.988,3.988,0,1,0-7.975,0V66.082a.9.9,0,0,0,.264.636l3.087,3.087A.9.9,0,0,0,111.972,70.072Zm-2.187-35.258a2.187,2.187,0,0,1,4.374,0V36.95h-4.374Zm0,3.937h4.374V61.133h-4.374Zm0,24.184h4.374v2.779L111.972,67.9l-2.187-2.187Z" transform="translate(-54.745 -14.964)"/>
        <path id="Trazado_906704" data-name="Trazado 906704" d="M29.79,51.418a.9.9,0,0,0,.669.87l5.377,1.449-2.779,4.828a.9.9,0,0,0,1.229,1.23l4.828-2.779,1.449,5.38a.9.9,0,0,0,1.738,0l1.447-5.381,4.828,2.779a.9.9,0,0,0,1.229-1.23l-2.779-4.828,5.38-1.448a.9.9,0,0,0,0-1.739L47.027,49.1l2.779-4.827a.9.9,0,0,0-1.229-1.23l-4.828,2.779-1.45-5.38a.9.9,0,0,0-1.738,0l-1.447,5.38-4.828-2.779a.9.9,0,0,0-1.229,1.23L35.834,49.1,30.456,50.55a.9.9,0,0,0-.666.868Zm7.644-.883a.9.9,0,0,0,.546-1.319l-1.7-2.944,2.947,1.7a.9.9,0,0,0,1.32-.549l.884-3.281.883,3.281a.9.9,0,0,0,1.317.549l2.944-1.7-1.695,2.944a.9.9,0,0,0,.546,1.319l3.28.882-3.28.883a.9.9,0,0,0-.546,1.319l1.695,2.943-2.944-1.695a.9.9,0,0,0-1.318.546L41.432,58.7l-.882-3.279a.9.9,0,0,0-1.318-.546l-2.946,1.693,1.7-2.944a.9.9,0,0,0-.546-1.319l-3.283-.883Z" transform="translate(-16.785 -19.31)"/>
      </g>
    </g>
  </g>
</svg>
