<svg xmlns="http://www.w3.org/2000/svg" xmlns:xlink="http://www.w3.org/1999/xlink" width="321.373" height="200.22" viewBox="0 0 321.373 200.22">
  <defs>
    <clipPath id="clip-path">
      <path id="Trazado_906834" data-name="Trazado 906834" d="M401.736,1185.818l-25.414-14.181a1.168,1.168,0,0,1-.57-1.062l25.415,14.18A1.168,1.168,0,0,0,401.736,1185.818Z" transform="translate(-375.752 -1170.575)"/>
    </clipPath>
  </defs>
  <g id="_30595591_welder_s_9" data-name="30595591_welder_s_9" transform="translate(-300 -563.889)">
    <path id="Trazado_906831" data-name="Trazado 906831" d="M621.373,1106.234c0,17.364-71.942,31.441-160.686,31.441S300,1123.6,300,1106.234s71.942-31.441,160.687-31.441S621.373,1088.871,621.373,1106.234Z" transform="translate(0 -393.625)" fill="#b7b7b7"/>
    <rect id="Rectángulo_404827" data-name="Rectángulo 404827" width="8.251" height="146.684" transform="translate(411.73 572.894)" fill="#505051"/>
    <g id="Grupo_1113865" data-name="Grupo 1113865" transform="translate(317.389 654.834)">
      <path id="Trazado_906832" data-name="Trazado 906832" d="M534.115,974.285a.94.94,0,0,0-.129-.021c-.021,0-.042-.006-.064-.007a1.15,1.15,0,0,0-.2.007L508.3,960.083a1.117,1.117,0,0,1,.2-.007c.02,0,.039,0,.059.007a1.063,1.063,0,0,1,.134.022c.01,0,.022,0,.032.006s.022.009.034.013a.939.939,0,0,1,.122.047c.014.006.029.009.041.016l.038.02,25.415,14.181c-.025-.014-.05-.023-.075-.034a1.1,1.1,0,0,0-.126-.049A.6.6,0,0,0,534.115,974.285Z" transform="translate(-477.877 -960.074)" fill="#7e1b20"/>
      <g id="Grupo_1113863" data-name="Grupo 1113863" transform="translate(0 48.321)">
        <g id="Grupo_1113862" data-name="Grupo 1113862" clip-path="url(#clip-path)">
          <path id="Trazado_906833" data-name="Trazado 906833" d="M401.166,1184.757a1.17,1.17,0,0,0,.569,1.063l-25.414-14.181a1.168,1.168,0,0,1-.57-1.062Z" transform="translate(-375.752 -1170.576)" fill="#6a171b"/>
        </g>
      </g>
      <path id="Trazado_906835" data-name="Trazado 906835" d="M409.047,978l-25.415-14.18,28.619-3.709,25.415,14.18Z" transform="translate(-381.823 -960.1)" fill="#901f24"/>
      <path id="Trazado_906836" data-name="Trazado 906836" d="M476.351,986.688c1.668-.2,1.845-1.061.393-1.906l-10.808-6.291a10.587,10.587,0,0,0-5.673-1.158l-2.937.367c-1.667.209-1.857,1.094-.422,1.968l10.238,6.232a10.291,10.291,0,0,0,5.643,1.22Z" transform="translate(-437.532 -973.335)" fill="#3f3e43"/>
      <g id="Grupo_1113864" data-name="Grupo 1113864" transform="translate(0 5.226)">
        <path id="Trazado_906837" data-name="Trazado 906837" d="M401.166,1040.115l-25.415-14.18.543-43.1,25.415,14.18Z" transform="translate(-375.751 -982.839)" fill="#68161a"/>
      </g>
      <path id="Trazado_906838" data-name="Trazado 906838" d="M404.363,990.588c-.031.016-.06.031-.089.05a1.442,1.442,0,0,0-.15.106l-.037.029a1.585,1.585,0,0,0-.163.165l-.037.046a1.8,1.8,0,0,0-.109.154l-.035.055a1.649,1.649,0,0,0-.09.186c-.006.015-.014.028-.02.042a1.633,1.633,0,0,0-.051.175c-.007.029-.018.056-.024.084a1.493,1.493,0,0,0-.029.272l-25.415-14.181a1.5,1.5,0,0,1,.028-.27,1.4,1.4,0,0,1,.044-.15c.01-.036.017-.072.03-.106,0,0,0,0,0,0,.007-.02.018-.039.027-.058a1.451,1.451,0,0,1,.068-.148c0-.008.011-.016.016-.025s.023-.037.035-.056.035-.058.054-.085.036-.045.054-.067l.038-.048c.008-.009.014-.019.022-.027a1.556,1.556,0,0,1,.129-.128l.011-.009c.013-.011.027-.02.039-.031.034-.027.067-.055.1-.079.014-.009.029-.015.042-.024.031-.019.062-.036.093-.053s.045-.028.069-.039.05-.018.074-.028l.063-.024a1.269,1.269,0,0,1,.226-.054L404.8,990.443a1.21,1.21,0,0,0-.226.054l-.062.023A1.44,1.44,0,0,0,404.363,990.588Z" transform="translate(-377.572 -972.546)" fill="#871d22"/>
      <path id="Trazado_906839" data-name="Trazado 906839" d="M516.892,1021.848a1.1,1.1,0,0,1,1.233,1.185l-.542,43.1a1.554,1.554,0,0,1-1.267,1.508l-28.619,3.71a1.1,1.1,0,0,1-1.232-1.185l.542-43.1a1.554,1.554,0,0,1,1.266-1.508Z" transform="translate(-461.05 -1007.66)" fill="#b2262d"/>
      <path id="Trazado_906840" data-name="Trazado 906840" d="M521.99,1077.592a3.637,3.637,0,0,0,3.069-3.448l.422-33.505a2.582,2.582,0,0,0-2.992-2.663l-18.936,2.454a3.638,3.638,0,0,0-3.069,3.448l-.421,33.505a2.582,2.582,0,0,0,2.992,2.662Z" transform="translate(-471.526 -1020.074)" fill="#3f3e43"/>
      <path id="Trazado_906841" data-name="Trazado 906841" d="M521.99,1077.592a3.637,3.637,0,0,0,3.069-3.448l.422-33.505a2.582,2.582,0,0,0-2.992-2.663l-18.936,2.454a3.638,3.638,0,0,0-3.069,3.448l-.421,33.505a2.582,2.582,0,0,0,2.992,2.662Z" transform="translate(-471.526 -1020.074)" fill="#3f3e43"/>
      <path id="Trazado_906842" data-name="Trazado 906842" d="M525.044,1063.651a2.128,2.128,0,1,0,1.762-1.958A1.889,1.889,0,0,0,525.044,1063.651Z" transform="translate(-490.758 -1038.337)" fill="#b7b7b7"/>
      <path id="Trazado_906843" data-name="Trazado 906843" d="M511.633,1158.281a2.129,2.129,0,1,0,1.762-1.958A1.889,1.889,0,0,0,511.633,1158.281Z" transform="translate(-480.427 -1111.244)" fill="#b7b7b7"/>
      <path id="Trazado_906844" data-name="Trazado 906844" d="M577.927,1056.241a2.128,2.128,0,1,0,1.762-1.958A1.889,1.889,0,0,0,577.927,1056.241Z" transform="translate(-531.502 -1032.627)" fill="#b7b7b7"/>
      <path id="Trazado_906845" data-name="Trazado 906845" d="M509.669,1086.055a2.647,2.647,0,0,0,3.026,2.695l15.349-1.824a3.627,3.627,0,0,0,3.1-3.416l.01-.45a2.583,2.583,0,0,0-2.97-2.687l-15.47,1.874a3.558,3.558,0,0,0-3.041,3.423Z" transform="translate(-478.928 -1052.741)" fill="#b7b7b7"/>
    </g>
    <g id="Grupo_1113866" data-name="Grupo 1113866" transform="translate(350.023 681.884)">
      <path id="Trazado_906846" data-name="Trazado 906846" d="M574.033,1135.631a74.323,74.323,0,0,1-22.132-3.108,51.711,51.711,0,0,1-21.572-12.818,46.464,46.464,0,0,1-12.381-21.4,1.523,1.523,0,1,1,2.983-.615A44.278,44.278,0,0,0,532.6,1117.66c12.413,12.382,31.707,17.183,55.792,13.888a236.785,236.785,0,0,0,30.544-6.1c19.835-5.493,31.167-12.416,32.77-20.021,1.513-7.175-5.535-15.475-20.949-24.671a1.527,1.527,0,0,1,1.557-2.627c8.563,5.109,14.765,10.094,18.431,14.815,3.5,4.507,4.826,8.919,3.941,13.115-1.883,8.925-13.649,16.441-34.971,22.342a240.168,240.168,0,0,1-30.936,6.181A109.005,109.005,0,0,1,574.033,1135.631Z" transform="translate(-517.917 -1077.91)" fill="#3f3e43"/>
    </g>
    <path id="Trazado_906847" data-name="Trazado 906847" d="M995.839,808.444l29.028-19.862,12.528-38.2,16.195,8.556s-6.671,33.119-13.9,41.251c-6.824,7.673-37.126,17.57-37.126,17.57Z" transform="translate(-536.107 -143.687)" fill="#343c59"/>
    <g id="Grupo_1113889" data-name="Grupo 1113889" transform="translate(384.935 648.437)">
      <g id="Grupo_1113876" data-name="Grupo 1113876" transform="translate(0 0)">
        <g id="Grupo_1113869" data-name="Grupo 1113869" transform="translate(24.495 24.496)">
          <g id="Grupo_1113867" data-name="Grupo 1113867">
            <path id="Trazado_906848" data-name="Trazado 906848" d="M776.709,1045.085c4.324,1.018,5.149,1.842,6.166,6.166,1.017-4.324,1.842-5.149,6.166-6.166-4.325-1.017-5.149-1.842-6.166-6.166C781.858,1043.242,781.033,1044.068,776.709,1045.085Z" transform="translate(-776.709 -1038.919)" fill="#fff"/>
            <path id="Trazado_906849" data-name="Trazado 906849" d="M784.576,1055.5c3.777-2.338,4.943-2.338,8.72,0-2.338-3.777-2.338-4.943,0-8.72-3.777,2.338-4.943,2.338-8.721,0C786.914,1050.562,786.914,1051.728,784.576,1055.5Z" transform="translate(-782.77 -1044.979)" fill="#fff"/>
          </g>
          <g id="Grupo_1113868" data-name="Grupo 1113868" transform="translate(0.378 0.378)">
            <path id="Trazado_906850" data-name="Trazado 906850" d="M778.355,1048.48c4.41-.536,5.468-.046,7.914,3.662-.536-4.41-.047-5.468,3.663-7.914-4.41.536-5.468.046-7.914-3.662C782.553,1044.974,782.063,1046.035,778.355,1048.48Z" transform="translate(-778.355 -1040.566)" fill="#fff"/>
            <path id="Trazado_906851" data-name="Trazado 906851" d="M782.2,1052.6c2.739-3.5,3.834-3.9,8.186-3.007-3.5-2.739-3.9-3.834-3.007-8.185-2.739,3.5-3.834,3.9-8.186,3.006C782.689,1047.15,783.091,1048.245,782.2,1052.6Z" transform="translate(-779 -1041.212)" fill="#fff"/>
          </g>
        </g>
        <g id="Grupo_1113872" data-name="Grupo 1113872" transform="translate(8.759 8.759)">
          <g id="Grupo_1113870" data-name="Grupo 1113870">
            <path id="Trazado_906852" data-name="Trazado 906852" d="M708.159,992.269c15.361,3.613,18.29,6.542,21.9,21.9,3.614-15.361,6.542-18.289,21.9-21.9-15.36-3.612-18.289-6.542-21.9-21.9C726.449,985.726,723.52,988.655,708.159,992.269Z" transform="translate(-708.159 -970.366)" fill="#a9efff"/>
            <path id="Trazado_906853" data-name="Trazado 906853" d="M736.1,1029.284c13.417-8.306,17.559-8.306,30.974,0-8.3-13.416-8.306-17.558,0-30.973-13.417,8.306-17.559,8.306-30.974,0C744.409,1011.728,744.409,1015.869,736.1,1029.284Z" transform="translate(-729.688 -991.896)" fill="#a9efff"/>
          </g>
          <g id="Grupo_1113871" data-name="Grupo 1113871" transform="translate(1.343 1.342)">
            <path id="Trazado_906854" data-name="Trazado 906854" d="M714.009,1004.323c15.665-1.9,19.423-.163,28.111,13.008-1.9-15.665-.165-19.423,13.01-28.111-15.666,1.9-19.424.163-28.112-13.008C728.921,991.876,727.181,995.636,714.009,1004.323Z" transform="translate(-714.009 -976.212)" fill="#a9efff"/>
            <path id="Trazado_906855" data-name="Trazado 906855" d="M727.661,1018.945c9.73-12.422,13.619-13.85,29.076-10.679-12.422-9.729-13.851-13.619-10.679-29.075-9.73,12.422-13.619,13.85-29.076,10.679C729.4,999.6,730.832,1003.489,727.661,1018.945Z" transform="translate(-716.3 -978.507)" fill="#a9efff"/>
          </g>
        </g>
        <g id="Grupo_1113875" data-name="Grupo 1113875">
          <g id="Grupo_1113873" data-name="Grupo 1113873">
            <path id="Trazado_906856" data-name="Trazado 906856" d="M670,962.87c21.5,5.058,25.6,9.158,30.661,30.662,5.058-21.5,9.158-25.6,30.662-30.662-21.5-5.057-25.6-9.158-30.662-30.662C695.605,953.711,691.5,957.813,670,962.87Z" transform="translate(-670.001 -932.208)" fill="#a9efff"/>
            <path id="Trazado_906857" data-name="Trazado 906857" d="M709.121,1014.689c18.782-11.627,24.581-11.627,43.362,0-11.626-18.781-11.628-24.58,0-43.36-18.782,11.628-24.581,11.628-43.362,0C720.75,990.111,720.75,995.91,709.121,1014.689Z" transform="translate(-700.141 -962.349)" fill="#a9efff"/>
          </g>
          <g id="Grupo_1113874" data-name="Grupo 1113874" transform="translate(1.88 1.88)">
            <path id="Trazado_906858" data-name="Trazado 906858" d="M678.191,979.751c21.929-2.665,27.191-.229,39.352,18.211-2.665-21.929-.23-27.191,18.213-39.352-21.931,2.665-27.193.229-39.354-18.211C699.067,962.328,696.631,967.59,678.191,979.751Z" transform="translate(-678.191 -940.399)" fill="#a9efff"/>
            <path id="Trazado_906859" data-name="Trazado 906859" d="M697.3,1000.214c13.621-17.391,19.066-19.389,40.7-14.95-17.39-13.62-19.391-19.065-14.949-40.7-13.621,17.39-19.066,19.389-40.7,14.95C699.744,973.131,701.742,978.576,697.3,1000.214Z" transform="translate(-681.398 -943.606)" fill="#a9efff"/>
          </g>
        </g>
      </g>
      <g id="Grupo_1113882" data-name="Grupo 1113882" transform="translate(0.967 79.647)">
        <g id="Grupo_1113877" data-name="Grupo 1113877" transform="translate(17.797)">
          <path id="Trazado_906860" data-name="Trazado 906860" d="M752,1285.767c-.371,1.639-.339,3.056.071,3.149s1.049-1.172,1.419-2.812l.855-3.775c.37-1.639.339-3.056-.07-3.149s-1.049,1.173-1.42,2.812Z" transform="translate(-751.742 -1279.175)" fill="#a9efff"/>
          <path id="Trazado_906861" data-name="Trazado 906861" d="M754.54,1291.979c-.213.943-.195,1.758.041,1.811s.6-.674.817-1.617l.491-2.171c.213-.942.2-1.757-.041-1.811s-.6.674-.816,1.617Z" transform="translate(-753.784 -1286.12)" fill="#a9efff"/>
        </g>
        <g id="Grupo_1113878" data-name="Grupo 1113878" transform="translate(0 8.524)">
          <path id="Trazado_906862" data-name="Trazado 906862" d="M674.555,1322.808c-.435,1.623-.459,3.04-.053,3.149s1.094-1.13,1.529-2.753l1-3.739c.435-1.623.46-3.041.054-3.149s-1.094,1.131-1.529,2.754Z" transform="translate(-674.213 -1316.309)" fill="#a9efff"/>
          <path id="Trazado_906863" data-name="Trazado 906863" d="M677.338,1328.98c-.251.933-.264,1.749-.031,1.811s.629-.65.879-1.583l.576-2.149c.251-.933.264-1.748.031-1.811s-.629.65-.879,1.583Z" transform="translate(-676.469 -1323.193)" fill="#a9efff"/>
        </g>
        <g id="Grupo_1113879" data-name="Grupo 1113879" transform="translate(40.662 0.234)">
          <path id="Trazado_906864" data-name="Trazado 906864" d="M852.044,1285.326c.237,1.218.68,2.166.985,2.106s.359-1.1.122-2.321l-.546-2.8c-.237-1.218-.68-2.166-.984-2.106s-.359,1.1-.122,2.322Z" transform="translate(-851.351 -1280.197)" fill="#a9efff"/>
          <path id="Trazado_906865" data-name="Trazado 906865" d="M853.552,1289.842c.137.7.392,1.246.566,1.212s.207-.635.07-1.335l-.314-1.613c-.137-.7-.391-1.246-.566-1.212s-.206.635-.07,1.335Z" transform="translate(-852.74 -1285.355)" fill="#a9efff"/>
        </g>
        <g id="Grupo_1113880" data-name="Grupo 1113880" transform="translate(29.458 22.439)">
          <path id="Trazado_906866" data-name="Trazado 906866" d="M803.236,1382.056c.237,1.218.68,2.166.985,2.106s.359-1.1.122-2.321l-.546-2.8c-.237-1.218-.68-2.165-.985-2.106s-.359,1.1-.122,2.322Z" transform="translate(-802.543 -1376.927)" fill="#a9efff"/>
          <path id="Trazado_906867" data-name="Trazado 906867" d="M804.745,1386.572c.136.7.391,1.246.566,1.212s.207-.635.07-1.335l-.313-1.613c-.137-.7-.391-1.246-.566-1.212s-.207.635-.07,1.335Z" transform="translate(-803.933 -1382.085)" fill="#a9efff"/>
        </g>
        <g id="Grupo_1113881" data-name="Grupo 1113881" transform="translate(11.472 24.644)">
          <path id="Trazado_906868" data-name="Trazado 906868" d="M724.378,1394.276c-.332,1.915-.213,3.55.267,3.632s1.142-1.416,1.474-3.33l.765-4.411c.332-1.915.213-3.55-.267-3.633s-1.141,1.417-1.474,3.331Z" transform="translate(-724.189 -1386.532)" fill="#a9efff"/>
          <path id="Trazado_906869" data-name="Trazado 906869" d="M726.966,1401.525c-.191,1.1-.121,2.042.153,2.089s.658-.814.848-1.915l.441-2.536c.19-1.1.122-2.042-.153-2.09s-.657.815-.848,1.916Z" transform="translate(-726.246 -1394.653)" fill="#a9efff"/>
        </g>
      </g>
      <g id="Grupo_1113888" data-name="Grupo 1113888" transform="translate(53.143 63.794)">
        <g id="Grupo_1113883" data-name="Grupo 1113883" transform="translate(19.874)">
          <path id="Trazado_906870" data-name="Trazado 906870" d="M992.318,1215.779c.833,1.46,1.215,2.825.85,3.033s-1.344-.816-2.177-2.276l-1.918-3.362c-.833-1.46-1.216-2.825-.851-3.033s1.345.816,2.178,2.276Z" transform="translate(-988.083 -1210.115)" fill="#a9efff"/>
          <path id="Trazado_906871" data-name="Trazado 906871" d="M995.359,1221.449c.479.84.7,1.625.489,1.744s-.774-.469-1.253-1.308l-1.1-1.933c-.478-.839-.7-1.624-.489-1.744s.773.469,1.252,1.308Z" transform="translate(-991.813 -1216.339)" fill="#a9efff"/>
        </g>
        <g id="Grupo_1113884" data-name="Grupo 1113884" transform="translate(39.071 3.063)">
          <path id="Trazado_906872" data-name="Trazado 906872" d="M1076.15,1228.96c.889,1.426,1.325,2.775.969,3s-1.376-.762-2.265-2.188l-2.049-3.284c-.889-1.426-1.326-2.775-.97-3s1.376.763,2.266,2.189Z" transform="translate(-1071.71 -1223.457)" fill="#a9efff"/>
          <path id="Trazado_906873" data-name="Trazado 906873" d="M1079.383,1234.521c.511.82.763,1.6.557,1.723s-.791-.438-1.3-1.258l-1.178-1.888c-.512-.82-.763-1.6-.558-1.723s.792.439,1.3,1.258Z" transform="translate(-1075.655 -1229.543)" fill="#a9efff"/>
        </g>
        <g id="Grupo_1113885" data-name="Grupo 1113885" transform="translate(0 6.255)">
          <path id="Trazado_906874" data-name="Trazado 906874" d="M902.969,1242.394c.129,1.234-.019,2.27-.328,2.3s-.665-.951-.793-2.185l-.3-2.842c-.129-1.234.019-2.27.327-2.3s.665.951.794,2.185Z" transform="translate(-901.507 -1237.366)" fill="#a9efff"/>
          <path id="Trazado_906875" data-name="Trazado 906875" d="M903.745,1247.047c.073.71-.011,1.305-.189,1.324s-.383-.547-.457-1.257l-.169-1.634c-.073-.709.011-1.305.188-1.324s.383.548.457,1.257Z" transform="translate(-902.583 -1242.597)" fill="#a9efff"/>
        </g>
        <g id="Grupo_1113886" data-name="Grupo 1113886" transform="translate(17.191 24.229)">
          <path id="Trazado_906876" data-name="Trazado 906876" d="M977.859,1320.694c.128,1.234-.02,2.27-.328,2.3s-.665-.951-.794-2.185l-.3-2.842c-.128-1.234.019-2.269.328-2.3s.665.952.794,2.186Z" transform="translate(-976.395 -1315.666)" fill="#a9efff"/>
          <path id="Trazado_906877" data-name="Trazado 906877" d="M978.634,1325.336c.075.709-.011,1.305-.187,1.323s-.384-.547-.457-1.256l-.17-1.634c-.073-.709.011-1.305.189-1.324s.382.548.457,1.257Z" transform="translate(-977.472 -1320.889)" fill="#a9efff"/>
        </g>
        <g id="Grupo_1113887" data-name="Grupo 1113887" transform="translate(33.166 21.699)">
          <path id="Trazado_906878" data-name="Trazado 906878" d="M1050.57,1311.422c.876,1.734,1.238,3.334.8,3.552s-1.5-1.021-2.381-2.756l-2.018-4c-.876-1.734-1.238-3.333-.8-3.553s1.5,1.023,2.381,2.757Z" transform="translate(-1045.988 -1304.644)" fill="#a9efff"/>
          <path id="Trazado_906879" data-name="Trazado 906879" d="M1053.776,1318.132c.5,1,.711,1.918.463,2.043s-.866-.587-1.37-1.585l-1.161-2.3c-.5-1-.711-1.917-.463-2.043s.867.588,1.37,1.585Z" transform="translate(-1049.958 -1312.034)" fill="#a9efff"/>
        </g>
      </g>
    </g>
    <g id="Grupo_1113897" data-name="Grupo 1113897" transform="translate(441.421 563.889)">
      <path id="Trazado_906880" data-name="Trazado 906880" d="M1134.888,675.236a40.161,40.161,0,0,0,18.6-1.98s7.378,16.105.768,19.621c0,0-13.751,3.91-20.676.373C1133.582,693.25,1129.289,675.233,1134.888,675.236Z" transform="translate(-1082.44 -648.151)" fill="#feb082"/>
      <g id="Grupo_1113892" data-name="Grupo 1113892" transform="translate(5.243 0.985)">
        <path id="Trazado_906881" data-name="Trazado 906881" d="M997.6,627.213c-.568,2.74-4.46-.329-4.46-.329-8.866-6.681-12.582,2.532-12.582,2.532-2.187,5.164-20.141,9.806-23.437,9.084-2.816-.617-1.762-7.934-.408-14.143,0,0,7.4-30.808,32.834-18.263C989.543,606.094,1001.083,610.378,997.6,627.213Z" transform="translate(-951.568 -595.077)" fill="#7b3b3b"/>
        <path id="Trazado_906882" data-name="Trazado 906882" d="M987.644,643.216c1.472-1.238,3.584,1.685,4.8-.108a1.085,1.085,0,0,1,.412-.409c.272-.12.485.115.743.39.51.555,1.2,1.274,2.846-.267,1.149-1.074,4.179,1.313,5.518,1.06,3.414-.643,4.022-5.557,4.7-10.577a99.812,99.812,0,0,0,1.027-15.245c-.029-.286-.765,0-.765,0-.794-.378-.764-1.318-1.308-1.787a6.168,6.168,0,0,1-1.379-1.525c.062-.5.116-.989.166-1.464,1.562-15.158-3.351-15.794-3.351-15.794a36.348,36.348,0,0,0-12.217-3,23.064,23.064,0,0,0-14.865,4.2.058.058,0,0,1-.014.011,25.928,25.928,0,0,0-2.735,2.235,36.524,36.524,0,0,0-9.207,14.971,23.637,23.637,0,0,0-.44,11.527c.1.439.226.861.362,1.267a15.008,15.008,0,0,0,.567,1.478c.273.611.545,1.177.825,1.7,2.834,5.364,5.923,6.452,8.824,7.126,1.255.294,3.918.314,5.092.85,1.617.742,5.376,4.675,5.376,4.675C985.514,647.988,987.644,643.216,987.644,643.216Z" transform="translate(-955.968 -588.429)" fill="#feb082"/>
        <path id="Trazado_906883" data-name="Trazado 906883" d="M1000.69,601.735c-.691,2.833-5.051.821-5.051.821-10.1-3.131-13.847,3.069-13.847,3.069-2.551,5.379-22.343,10.816-25.928,10.2-3.063-.527-1.684-8.071-.013-14.49,0,0,8.167-32.725,35.621-20.816C991.471,580.519,1004.214,587.281,1000.69,601.735Z" transform="translate(-950.572 -575.677)" fill="#7b3b3b"/>
        <path id="Trazado_906884" data-name="Trazado 906884" d="M942.9,608.8s-15.887-28.82,15.714-39.642c12.611-4.319,35.093,5.993,28.488,25.793C987.1,594.947,961.472,567.193,942.9,608.8Z" transform="translate(-938.91 -568.181)" fill="#7b3b3b"/>
        <g id="Grupo_1113890" data-name="Grupo 1113890" transform="translate(20.682 44.949)">
          <path id="Trazado_906885" data-name="Trazado 906885" d="M1032,764.023c1.51.178,2.625,1.127,2.49,2.119s-1.468,1.651-2.979,1.472-2.625-1.129-2.49-2.121S1030.485,763.844,1032,764.023Z" transform="translate(-1029.006 -763.994)" fill="#7b3b3b"/>
          <path id="Trazado_906886" data-name="Trazado 906886" d="M1032.9,772.038a.463.463,0,0,1,.448.478.48.48,0,0,1-.564.35.464.464,0,0,1-.448-.478A.479.479,0,0,1,1032.9,772.038Z" transform="translate(-1031.566 -770.188)" fill="#fff6ee"/>
        </g>
        <g id="Grupo_1113891" data-name="Grupo 1113891" transform="translate(25.753 26.626)">
          <path id="Trazado_906887" data-name="Trazado 906887" d="M1055.645,692.807s-7.185-4.276-3.493-7.759c0,0,2.428-1.977,7.691.005,0,0,6.453,2.91,2.93,6.193C1062.773,691.247,1062.53,690.921,1055.645,692.807Z" transform="translate(-1051.097 -684.171)" fill="#feb082"/>
          <path id="Trazado_906888" data-name="Trazado 906888" d="M1062.186,697.369s-4.639-3.427-2.036-4.652a7.31,7.31,0,0,1,6.768,1.139s3.09,2.253.469,3.277C1067.388,697.133,1062.9,693.14,1062.186,697.369Z" transform="translate(-1057.461 -690.47)" fill="#fb9870"/>
        </g>
        <path id="Trazado_906889" data-name="Trazado 906889" d="M1012.078,757.256a11.528,11.528,0,0,1,1.992-7.49,9.84,9.84,0,0,0-4.888,6.187S1008.433,757.4,1012.078,757.256Z" transform="translate(-993.003 -708.083)" fill="#7b3b3b"/>
        <path id="Trazado_906890" data-name="Trazado 906890" d="M1116.377,708.137c-.759-.361-.812-.268-.118.206l3.535,2.41a5.062,5.062,0,0,1,1.707,2.322l1.921,6.328c.244.8.357.78.253-.054l-.849-6.726a3.116,3.116,0,0,0-1.571-2.171Z" transform="translate(-1075.172 -675.84)" fill="#fb9870"/>
        <path id="Trazado_906891" data-name="Trazado 906891" d="M1100.336,789.436a10.587,10.587,0,0,0-.332-5.023,27.33,27.33,0,0,1-.411,4.633C1099.865,788.925,1100.079,789.161,1100.336,789.436Z" transform="translate(-1062.708 -734.776)" fill="#f28964"/>
        <path id="Trazado_906892" data-name="Trazado 906892" d="M1064.76,793.9s2.379-1.118,2.569,1.773C1067.326,795.675,1066.328,793.616,1064.76,793.9Z" transform="translate(-1035.871 -741.923)" fill="#fb9870"/>
      </g>
      <g id="Grupo_1113894" data-name="Grupo 1113894" transform="translate(131.553 122.836)">
        <g id="Grupo_1113893" data-name="Grupo 1113893">
          <path id="Trazado_906893" data-name="Trazado 906893" d="M1494.632,1136.476a8.319,8.319,0,0,1-1.2-.3c-6.154-2.072-3.849-10.446-3.849-10.446a28.5,28.5,0,0,1,7.689-11.6c6.479-5.118.027-4.877-.885-7.88-2.037-6.692,7.055-7.608,10.116-7.147,11.9,1.794,5.3,15.895,5.3,15.895a4.47,4.47,0,0,0-3.565,4.587C1509.42,1135.275,1499.485,1137.312,1494.632,1136.476Z" transform="translate(-1489.156 -1099.002)" fill="#33221f"/>
          <path id="Trazado_906894" data-name="Trazado 906894" d="M1518.045,1120.421a4.468,4.468,0,0,1,3.565-4.587s6.287-13.45-4.5-15.748c7.073,3.779,1.906,14.832,1.906,14.832a4.469,4.469,0,0,0-3.565,4.587c1.18,15.644-8.7,17.711-13.563,16.9a7.269,7.269,0,0,0,1.35.613C1507.353,1138.4,1519.338,1137.564,1518.045,1120.421Z" transform="translate(-1498.962 -1099.837)" fill="#383e39"/>
        </g>
        <path id="Trazado_906895" data-name="Trazado 906895" d="M1509.86,1159.228s.361,16.088-6.182,17.753c0,0-4.891.545-3.673-3.662.823-2.841,5.714-8.678,4.776-15.117C1504.782,1158.2,1509.862,1156.4,1509.86,1159.228Z" transform="translate(-1497.364 -1144.177)" fill="#493734"/>
      </g>
      <path id="Trazado_906896" data-name="Trazado 906896" d="M1268.587,837.458s-66.723,31.569-34.09,50.2l59.519,23.716s8.728-4.375,8.392-17.653l-45.654-22.055,41.617-6.215S1297.472,817.746,1268.587,837.458Z" transform="translate(-1154.477 -770.981)" fill="#343c59"/>
      <g id="Grupo_1113895" data-name="Grupo 1113895" transform="translate(72.452 143.626)">
        <path id="Trazado_906897" data-name="Trazado 906897" d="M1275.1,1241.055s1.136.52.852,4.9a3.465,3.465,0,0,1-3.406,2.6l-8.941.075-2.058-3.266-7.1.446-.283,2.523s-21.075,1.484-22.424-4.751c0,0-.5-4.082,1.7-3.266Z" transform="translate(-1231.693 -1228.581)" fill="#282828"/>
        <path id="Trazado_906898" data-name="Trazado 906898" d="M1272.784,1189.57s3.556,2.781,4.224,4.475a12.648,12.648,0,0,1,0,8.61s-3.491,1.329-13.34.89a35.648,35.648,0,0,0-10.787,1.782c-4.251,1.314-14.689.668-18.166-3.563,0,0-.639-4.083,3.335-4.305,0,0,12.85,1.686,22.075-7.889C1260.124,1189.57,1264.906,1192.315,1272.784,1189.57Z" transform="translate(-1233.992 -1189.57)" fill="#1e1b1a"/>
        <path id="Trazado_906899" data-name="Trazado 906899" d="M1237.7,1199.5c1.586-1.067,1.19-.994,7.945-.611,5,.283,11.687.3,17.324-8.385a10.153,10.153,0,0,1-2.841-.934c-9.225,9.575-22.075,7.889-22.075,7.889-3.974.223-3.335,4.305-3.335,4.305a7.326,7.326,0,0,0,1.538,1.374C1236.45,1201.492,1236.87,1200.055,1237.7,1199.5Z" transform="translate(-1233.992 -1189.569)" fill="#2d2d2d"/>
      </g>
      <path id="Trazado_906900" data-name="Trazado 906900" d="M1179.5,662.7c10.091-8.523,72.218-12.7,94.338,61.553,0,0-10.939,14.78-52.608,5.791,0,0-19.573-16.159-42.188-33.121C1178.435,696.463,1164.91,675.025,1179.5,662.7Z" transform="translate(-1113.832 -636.54)" fill="#414765"/>
      <path id="Trazado_906901" data-name="Trazado 906901" d="M1344.524,917.008s10.8,42.138-48.936,21.872l6.721,33.713s-4.117,9.25-20.473,2.139L1267.912,921.4s-1.251-15.928,21.47-11.223Z" transform="translate(-1187.136 -830.016)" fill="#414765"/>
      <path id="Trazado_906902" data-name="Trazado 906902" d="M972.068,677.378c-10.667,3.581-19.565,3.459-26.889,1.32-.578-.168-1.143-.348-1.7-.544a38.663,38.663,0,0,1-11.269-6.206c-.476-.373-.944-.755-1.4-1.143a54.79,54.79,0,0,1-14.532-20.5,4.182,4.182,0,0,1,1.469-4.608l11.78-8.14a5.216,5.216,0,0,1,5.143-.18l32.937,19.5a6.79,6.79,0,0,1,2.924,4.6Z" transform="translate(-916.071 -620.052)" fill="#626e7f"/>
      <path id="Trazado_906903" data-name="Trazado 906903" d="M997.626,796.172a38.661,38.661,0,0,1-11.269-6.206Z" transform="translate(-970.223 -738.069)" fill="#898e93"/>
      <path id="Trazado_906904" data-name="Trazado 906904" d="M998.533,755.327l-3.886,7.74a38.856,38.856,0,0,1-14.368-7.893l3.618-7.2a3.063,3.063,0,0,1,4.1-1.356l9.176,4.611A3.063,3.063,0,0,1,998.533,755.327Z" transform="translate(-965.54 -704.42)" fill="#898e93"/>
      <path id="Trazado_906905" data-name="Trazado 906905" d="M1000.668,766.852l-3.042,6.047a38.66,38.66,0,0,1-11.269-6.206l2.82-5.613a2.4,2.4,0,0,1,3.221-1.066l7.2,3.618A2.4,2.4,0,0,1,1000.668,766.852Z" transform="translate(-970.223 -714.797)" fill="#39424c"/>
      <g id="Grupo_1113896" data-name="Grupo 1113896" transform="translate(29.208 29.214)">
        <path id="Trazado_906906" data-name="Trazado 906906" d="M1049.831,694.415a3.259,3.259,0,1,1-3.259-3.259A3.259,3.259,0,0,1,1049.831,694.415Z" transform="translate(-1043.312 -691.156)" fill="#898e93"/>
        <path id="Trazado_906907" data-name="Trazado 906907" d="M1052.715,698.517a2.037,2.037,0,1,1-2.037-2.037A2.037,2.037,0,0,1,1052.715,698.517Z" transform="translate(-1047.418 -695.258)" fill="#39424c"/>
      </g>
      <path id="Trazado_906908" data-name="Trazado 906908" d="M1041.139,589.614a2.676,2.676,0,1,1-5.252.684l-3-23.018a2.675,2.675,0,1,1,5.252-.685Z" transform="translate(-1006.05 -563.889)" fill="#626e7f"/>
      <path id="Trazado_906909" data-name="Trazado 906909" d="M1403.6,920.108s31.209,14.53,48.1,5.941C1451.7,926.049,1434.973,943.33,1403.6,920.108Z" transform="translate(-1291.687 -838.337)" fill="#343c59"/>
    </g>
    <path id="Trazado_906910" data-name="Trazado 906910" d="M1002.557,979.8l14.056-3.972s-1.07-14.056-11-15.125l-9.778,9.778Z" transform="translate(-536.104 -305.727)" fill="#8e1921"/>
    <g id="Grupo_1113899" data-name="Grupo 1113899" transform="translate(413.604 654.931)">
      <path id="Trazado_906911" data-name="Trazado 906911" d="M953.947,993.522s12.208,3.829-3.485,15.3c0,0-12.337,3.237-13.606-9.794,0,0,6.627-16.427,16.227-8.514C953.685,991.012,954.93,992.668,953.947,993.522Z" transform="translate(-904.268 -981.963)" fill="#8e1921"/>
      <g id="Grupo_1113898" data-name="Grupo 1113898" transform="translate(0 0)">
        <path id="Trazado_906912" data-name="Trazado 906912" d="M945.332,994.558a1.631,1.631,0,0,1-.185,2.283l-3.438,2.914a1.611,1.611,0,0,1-2.27-.2l-20.1-23.972a1.631,1.631,0,0,1,.185-2.284l3.437-2.913a1.612,1.612,0,0,1,2.271.2Z" transform="translate(-890.474 -967.823)" fill="#8f9196"/>
        <path id="Trazado_906913" data-name="Trazado 906913" d="M823.6,963.709c.342.431.085,1.211-.572,1.734l-26.167,20.821c-.658.523-1.475.6-1.819.168s-.084-1.211.573-1.734l26.167-20.821C822.442,963.354,823.26,963.278,823.6,963.709Z" transform="translate(-794.893 -962.756)" fill="#8f9196"/>
        <path id="Trazado_906914" data-name="Trazado 906914" d="M917.177,964.51c.534.649.635,1.456.224,1.795s-1.185.084-1.719-.564l-2.72-3.3c-.533-.648-.635-1.456-.224-1.794s1.184-.085,1.718.564Z" transform="translate(-885.492 -960.495)" fill="#8f9196"/>
      </g>
      <path id="Trazado_906915" data-name="Trazado 906915" d="M911.393,1027.706c-2.553,2.8.317,3.838,1.341,3.875a23.281,23.281,0,0,0,4.059-.806c-1.156,6.371,4.077,3.349,4.077,3.349,1.373,6.149,5.809,1.144,5.809,1.144,1.545,3.572,4.226-.745,4.226-.745,3.288-4.664-.384-5.227-.384-5.227-1.563-.372-4.03,4.4-4.03,4.4,2.133-4.888-.5-4.893-.5-4.893-1.118-.4-2.4.814-3.226,1.827a4.383,4.383,0,0,0,.028-1.844c-.563-1.3-1.344-1.577-2.108-1.4,6.027-5.17,1.394-6.219-.661-5.057C917.807,1023.572,914.867,1023.891,911.393,1027.706Z" transform="translate(-883.857 -1007.798)" fill="#cc2c33"/>
      <path id="Trazado_906916" data-name="Trazado 906916" d="M919.662,993.993c1.743,2.114,12.424-2.312,12.424-2.312s6.784,3.935,7.242-3.771c0,0-3.56-3.153-9.609-1.127C929.718,986.784,916.539,990.206,919.662,993.993Z" transform="translate(-890.652 -980.226)" fill="#cc2c33"/>
    </g>
    <path id="Trazado_906917" data-name="Trazado 906917" d="M1191.521,692.385c-9.574,9.574,21.186,37.889,21.186,37.889l-19.1-6.009-3.514,9.32s31.778,23.681,42.167,10.746C1242.176,731.99,1205.17,675.681,1191.521,692.385Z" transform="translate(-685.447 -96.634)" fill="#49516d"/>
    <path id="Trazado_906918" data-name="Trazado 906918" d="M1289.13,867.082s6.315-1.63,12.223,6.519C1301.351,873.6,1293.409,868.712,1289.13,867.082Z" transform="translate(-762.073 -233.492)" fill="#414765"/>
    <g id="Grupo_1113901" data-name="Grupo 1113901" transform="translate(480.161 616.458)">
      <g id="Grupo_1113900" data-name="Grupo 1113900">
        <path id="Trazado_906919" data-name="Trazado 906919" d="M1121.891,819.686s-6.851,3.085-13.411-3.413a61.263,61.263,0,0,0-6.87-6.212s-6.213-5.3-.169-5.546l12.649,10.008S1119.109,810.276,1121.891,819.686Z" transform="translate(-1095.593 -801.847)" fill="#8e1921"/>
        <path id="Trazado_906920" data-name="Trazado 906920" d="M1118.643,807.278c-7.286-8.044-15-13.022-18.241-12.678,0,0-2.13-.777-4.993-1.488,0,0-1.349-.55-5.2.107-1.771.3-9.864,4.371-1.984,6.907,0,0-5,6,.18,6.2,0,0-2.285,5.452,2.388,3.441,0,0-.464,4.989,6.311.2,1.052-.743,3.132-2.884,4.434-2.629,0,0,2.748-.693,3.952,1.435,0,0,2.3,7.566,8.2,8.5C1113.687,817.275,1122.883,811.959,1118.643,807.278Z" transform="translate(-1084.836 -792.895)" fill="#cc2c33"/>
        <path id="Trazado_906921" data-name="Trazado 906921" d="M1130.086,860.067a17.113,17.113,0,0,1-2.442,1.477,11.129,11.129,0,0,1,5.253-3.627C1131.853,858.543,1130.758,859.591,1130.086,860.067Z" transform="translate(-1117.817 -842.991)" fill="#8e1921"/>
        <path id="Trazado_906922" data-name="Trazado 906922" d="M1092.52,807.5s3.3-3.991,5.331-4.45a5.931,5.931,0,0,1,2.872.743s-5.156-4.366-10.312,2.753A4.072,4.072,0,0,0,1092.52,807.5Z" transform="translate(-1089.131 -800.271)" fill="#8e1921"/>
        <path id="Trazado_906923" data-name="Trazado 906923" d="M1100.38,828.913l5.885-6.705S1101.25,824.828,1100.38,828.913Z" transform="translate(-1096.812 -815.479)" fill="#8e1921"/>
        <path id="Trazado_906924" data-name="Trazado 906924" d="M1112.18,845.477l5.758-6.055A9.415,9.415,0,0,0,1112.18,845.477Z" transform="translate(-1105.903 -828.742)" fill="#8e1921"/>
      </g>
    </g>
    <path id="Trazado_906925" data-name="Trazado 906925" d="M1189.995,833.585l12.223,4.583s3.667,9.32-5.195,15.278l-12.834-8.556Z" transform="translate(-681.221 -207.787)" fill="#cc2c33"/>
  </g>
</svg>
