<svg xmlns="http://www.w3.org/2000/svg" xmlns:xlink="http://www.w3.org/1999/xlink" width="111.381" height="111.381" viewBox="0 0 111.381 111.381">
  <defs>
    <filter id="Trazado_873672" x="0" y="0" width="111.381" height="111.381" filterUnits="userSpaceOnUse">
      <feOffset dy="3" input="SourceAlpha"/>
      <feGaussianBlur stdDeviation="3" result="blur"/>
      <feFlood flood-opacity="0.161"/>
      <feComposite operator="in" in2="blur"/>
      <feComposite in="SourceGraphic"/>
    </filter>
  </defs>
  <g id="Grupo_1113826" data-name="Grupo 1113826" transform="translate(11067 11281)">
    <g id="Grupo_1113820" data-name="Grupo 1113820" transform="translate(5 -54)">
      <g id="Rectángulo_400898" data-name="Rectángulo 400898" transform="translate(-11063 -11221)" fill="#fff" stroke="#fff" stroke-width="3" opacity="0.98">
        <rect width="93.381" height="93.381" rx="46.691" stroke="none"/>
        <rect x="1.5" y="1.5" width="90.381" height="90.381" rx="45.191" fill="none"/>
      </g>
      <g transform="matrix(1, 0, 0, 1, -11072, -11227)" filter="url(#Trazado_873672)">
        <g id="Trazado_873672-2" data-name="Trazado 873672" transform="translate(9 6)" fill="none" opacity="0.95">
          <path d="M46.691,0A46.691,46.691,0,1,1,0,46.691,46.691,46.691,0,0,1,46.691,0Z" stroke="none"/>
          <path d="M 46.690673828125 3 C 40.79114532470703 3 35.06968688964844 4.154762268066406 29.68521499633789 6.432205200195312 C 24.48291778564453 8.632591247558594 19.81014251708984 11.78325653076172 15.79669952392578 15.79669952392578 C 11.78325653076172 19.81014251708984 8.632591247558594 24.48291778564453 6.432205200195312 29.68521499633789 C 4.154762268066406 35.06968688964844 3 40.79114532470703 3 46.690673828125 C 3 52.59020233154297 4.154762268066406 58.31166076660156 6.432205200195312 63.69614410400391 C 8.632591247558594 68.89842987060547 11.78325653076172 73.57120513916016 15.79669952392578 77.58464813232422 C 19.81014251708984 81.59809112548828 24.48291778564453 84.74875640869141 29.68521499633789 86.94914245605469 C 35.06968688964844 89.22658538818359 40.79114532470703 90.38134765625 46.690673828125 90.38134765625 C 52.59020233154297 90.38134765625 58.31167221069336 89.22658538818359 63.69614410400391 86.94914245605469 C 68.89842987060547 84.74875640869141 73.57120513916016 81.59809112548828 77.58464813232422 77.58464813232422 C 81.59809112548828 73.57120513916016 84.74875640869141 68.89842987060547 86.94914245605469 63.69614410400391 C 89.22658538818359 58.31167221069336 90.38134765625 52.59020233154297 90.38134765625 46.690673828125 C 90.38134765625 40.79114532470703 89.22658538818359 35.06968688964844 86.94914245605469 29.68521499633789 C 84.74875640869141 24.48291778564453 81.59809112548828 19.81014251708984 77.58464813232422 15.79669952392578 C 73.57120513916016 11.78325653076172 68.89842987060547 8.632591247558594 63.69614410400391 6.432205200195312 C 58.31166076660156 4.154762268066406 52.59020233154297 3 46.690673828125 3 M 46.690673828125 0 C 72.47723388671875 0 93.38134765625 20.90412902832031 93.38134765625 46.690673828125 C 93.38134765625 72.47723388671875 72.47723388671875 93.38134765625 46.690673828125 93.38134765625 C 20.90412902832031 93.38134765625 0 72.47723388671875 0 46.690673828125 C 0 20.90412902832031 20.90412902832031 0 46.690673828125 0 Z" stroke="none" fill="#fff"/>
        </g>
      </g>
    </g>
    <path id="Trazado_906682" data-name="Trazado 906682" d="M37.637,47.112a3.8,3.8,0,0,0-2.383,3.56,2.207,2.207,0,0,1-2.2,2.2H28.826a2.207,2.207,0,0,1-2.2-2.2,3.858,3.858,0,0,0-6.585-2.728,2.2,2.2,0,0,1-3.117,0l-2.987-2.987a2.207,2.207,0,0,1,0-3.118A3.86,3.86,0,0,0,11.2,35.255,2.207,2.207,0,0,1,9,33.05V28.826a2.207,2.207,0,0,1,2.2-2.2,3.86,3.86,0,0,0,2.728-6.585,2.207,2.207,0,0,1,0-3.117l2.987-2.987a2.207,2.207,0,0,1,3.118,0A3.86,3.86,0,0,0,26.622,11.2a2.207,2.207,0,0,1,2.2-2.2H33.05a2.207,2.207,0,0,1,2.2,2.2,3.86,3.86,0,0,0,6.586,2.728,2.207,2.207,0,0,1,3.117,0l2.987,2.987a2.207,2.207,0,0,1,0,3.118A3.833,3.833,0,0,0,47.529,25a.817.817,0,1,1-1.339.936,5.437,5.437,0,0,1,.6-7.057.571.571,0,0,0,0-.807L43.8,15.087a.571.571,0,0,0-.807,0A5.494,5.494,0,0,1,33.621,11.2a.571.571,0,0,0-.57-.57H28.826a.571.571,0,0,0-.57.57,5.494,5.494,0,0,1-9.375,3.883.571.571,0,0,0-.807,0l-2.987,2.987a.571.571,0,0,0,0,.807A5.494,5.494,0,0,1,11.2,28.256a.571.571,0,0,0-.57.571V33.05a.571.571,0,0,0,.57.57A5.494,5.494,0,0,1,15.087,43a.571.571,0,0,0,0,.807l2.987,2.987a.571.571,0,0,0,.807,0,5.492,5.492,0,0,1,9.375,3.883.571.571,0,0,0,.57.57H33.05a.571.571,0,0,0,.57-.57A5.494,5.494,0,0,1,43,46.789a.571.571,0,0,0,.807,0l2.3-2.3a.817.817,0,1,1,1.155,1.155l-2.3,2.3a2.2,2.2,0,0,1-3.117,0,3.8,3.8,0,0,0-4.2-.833ZM41.9,30.938A10.965,10.965,0,1,1,30.938,19.973,10.978,10.978,0,0,1,41.9,30.938Zm-1.634,0a9.331,9.331,0,1,0-9.331,9.331,9.342,9.342,0,0,0,9.331-9.331Zm-3.705-2.891a.817.817,0,0,1-.071.853l-6.784,9.218a.817.817,0,0,1-1.447-.694l1.317-4.947H26.041a.817.817,0,0,1-.774-1.08l2.52-7.418a.817.817,0,0,1,.774-.554h3.49a.817.817,0,0,1,.767,1.1L31.687,27.6h4.148a.817.817,0,0,1,.729.448ZM34.22,29.233h-3.7a.817.817,0,0,1-.767-1.1L30.88,25.06H29.146l-1.965,5.784h3.46a.817.817,0,0,1,.789,1.027l-.48,1.8ZM66.652,60.357c0,4.349-7.054,6.3-14.044,6.3a28.175,28.175,0,0,1-9.376-1.42c-3.858-1.421-4.668-3.435-4.668-4.876a14.044,14.044,0,0,1,28.088,0Zm-7.233.688V64.3q.814-.193,1.531-.432V51.177q-.443-.4-.923-.762v1.959A2.56,2.56,0,0,1,57.47,54.93H47.746a2.56,2.56,0,0,1-2.557-2.557V50.414q-.48.359-.923.762v12.69q.715.238,1.531.432V61.045a.817.817,0,0,1,.817-.817H58.6a.817.817,0,0,1,.817.817Zm-6.811-13.1a12.334,12.334,0,0,0-5.785,1.434v2.993a.924.924,0,0,0,.923.923H57.47a.924.924,0,0,0,.923-.923V49.381a12.332,12.332,0,0,0-5.784-1.433ZM42.632,63.2V52.984A12.343,12.343,0,0,0,40.2,60.357C40.2,61.444,41.092,62.422,42.632,63.2Zm9.976,1.82a32.361,32.361,0,0,0,5.177-.395V61.862H47.431v2.761a32.362,32.362,0,0,0,5.177.395Zm12.41-4.662a12.344,12.344,0,0,0-2.434-7.373V63.2C64.125,62.422,65.018,61.444,65.018,60.357ZM49.686,27.032v-.245a2.467,2.467,0,0,1,2.464-2.464h.917a2.467,2.467,0,0,1,2.464,2.464v.245a8.1,8.1,0,0,1,4.842,5.44h.737a.817.817,0,0,1,.817.817v2.962a.817.817,0,0,1-.817.817H59.525c.009.142.014.284.014.426a6.93,6.93,0,0,1-13.861,0c0-.142.006-.284.014-.426H44.106a.817.817,0,0,1-.817-.817V33.288a.817.817,0,0,1,.817-.817h.737a8.1,8.1,0,0,1,4.842-5.44Zm8.2,10.036H47.331c-.011.142-.019.284-.019.426a5.3,5.3,0,0,0,10.593,0C57.905,37.351,57.9,37.209,57.886,37.068Zm2.407-2.962H44.923v1.328H60.294ZM46.55,32.471H58.666a6.465,6.465,0,0,0-3.136-3.648V30.6a.817.817,0,1,1-1.634,0V27.63q0-.019,0-.037v-.806a.831.831,0,0,0-.83-.83H52.15a.831.831,0,0,0-.83.83v.806q0,.019,0,.037V30.6a.817.817,0,1,1-1.634,0V28.823A6.465,6.465,0,0,0,46.55,32.471Z" transform="translate(-11049 -11266)" fill="#1a2f50"/>
  </g>
</svg>
