<svg xmlns="http://www.w3.org/2000/svg" xmlns:xlink="http://www.w3.org/1999/xlink" width="111.381" height="111.381" viewBox="0 0 111.381 111.381">
  <defs>
    <filter id="Trazado_873672" x="0" y="0" width="111.381" height="111.381" filterUnits="userSpaceOnUse">
      <feOffset dy="3" input="SourceAlpha"/>
      <feGaussianBlur stdDeviation="3" result="blur"/>
      <feFlood flood-opacity="0.161"/>
      <feComposite operator="in" in2="blur"/>
      <feComposite in="SourceGraphic"/>
    </filter>
  </defs>
  <g id="Grupo_1113828" data-name="Grupo 1113828" transform="translate(11072 11502)">
    <g id="Grupo_1113822" data-name="Grupo 1113822" transform="translate(0 -275)">
      <g id="Rectángulo_400898" data-name="Rectángulo 400898" transform="translate(-11063 -11221)" fill="#fff" stroke="#fff" stroke-width="3" opacity="0.98">
        <rect width="93.381" height="93.381" rx="46.691" stroke="none"/>
        <rect x="1.5" y="1.5" width="90.381" height="90.381" rx="45.191" fill="none"/>
      </g>
      <g transform="matrix(1, 0, 0, 1, -11072, -11227)" filter="url(#Trazado_873672)">
        <g id="Trazado_873672-2" data-name="Trazado 873672" transform="translate(9 6)" fill="none" opacity="0.95">
          <path d="M46.691,0A46.691,46.691,0,1,1,0,46.691,46.691,46.691,0,0,1,46.691,0Z" stroke="none"/>
          <path d="M 46.690673828125 3 C 40.79114532470703 3 35.06968688964844 4.154762268066406 29.68521499633789 6.432205200195312 C 24.48291778564453 8.632591247558594 19.81014251708984 11.78325653076172 15.79669952392578 15.79669952392578 C 11.78325653076172 19.81014251708984 8.632591247558594 24.48291778564453 6.432205200195312 29.68521499633789 C 4.154762268066406 35.06968688964844 3 40.79114532470703 3 46.690673828125 C 3 52.59020233154297 4.154762268066406 58.31166076660156 6.432205200195312 63.69614410400391 C 8.632591247558594 68.89842987060547 11.78325653076172 73.57120513916016 15.79669952392578 77.58464813232422 C 19.81014251708984 81.59809112548828 24.48291778564453 84.74875640869141 29.68521499633789 86.94914245605469 C 35.06968688964844 89.22658538818359 40.79114532470703 90.38134765625 46.690673828125 90.38134765625 C 52.59020233154297 90.38134765625 58.31167221069336 89.22658538818359 63.69614410400391 86.94914245605469 C 68.89842987060547 84.74875640869141 73.57120513916016 81.59809112548828 77.58464813232422 77.58464813232422 C 81.59809112548828 73.57120513916016 84.74875640869141 68.89842987060547 86.94914245605469 63.69614410400391 C 89.22658538818359 58.31167221069336 90.38134765625 52.59020233154297 90.38134765625 46.690673828125 C 90.38134765625 40.79114532470703 89.22658538818359 35.06968688964844 86.94914245605469 29.68521499633789 C 84.74875640869141 24.48291778564453 81.59809112548828 19.81014251708984 77.58464813232422 15.79669952392578 C 73.57120513916016 11.78325653076172 68.89842987060547 8.632591247558594 63.69614410400391 6.432205200195312 C 58.31166076660156 4.154762268066406 52.59020233154297 3 46.690673828125 3 M 46.690673828125 0 C 72.47723388671875 0 93.38134765625 20.90412902832031 93.38134765625 46.690673828125 C 93.38134765625 72.47723388671875 72.47723388671875 93.38134765625 46.690673828125 93.38134765625 C 20.90412902832031 93.38134765625 0 72.47723388671875 0 46.690673828125 C 0 20.90412902832031 20.90412902832031 0 46.690673828125 0 Z" stroke="none" fill="#fff"/>
        </g>
      </g>
    </g>
    <g id="Welding_Mask" transform="translate(-11045.115 -11503.103)">
      <g id="XMLID_5183_" transform="translate(0.115 28.103)">
        <g id="XMLID_5193_" transform="translate(3.584 1.792)">
          <path id="XMLID_760_" d="M49.126,92.484A17.045,17.045,0,0,1,32.1,75.458V44.991a.9.9,0,0,1,.9-.9H65.255a.9.9,0,0,1,.9.9V75.458A17.045,17.045,0,0,1,49.126,92.484Zm-15.233-46.6V75.458a15.233,15.233,0,0,0,30.467,0V45.887Z" transform="translate(-32.1 -44.095)" fill="#1a2f50"/>
        </g>
        <g id="XMLID_5192_" transform="translate(35.843 8.065)">
          <path id="XMLID_757_" d="M324.451,116.2h-3.584a.9.9,0,0,1-.9-.9V100.966a.9.9,0,0,1,.9-.9h3.584a.9.9,0,0,1,.9.9V115.3A.9.9,0,0,1,324.451,116.2Zm-2.688-1.792h1.792V101.862h-1.792Z" transform="translate(-319.971 -100.07)" fill="#1a2f50"/>
        </g>
        <g id="XMLID_5191_" transform="translate(0 8.065)">
          <path id="XMLID_754_" d="M4.6,116.2H1.011a.9.9,0,0,1-.9-.9V100.966a.9.9,0,0,1,.9-.9H4.6a.9.9,0,0,1,.9.9V115.3A.9.9,0,0,1,4.6,116.2Zm-2.688-1.792H3.7V101.862H1.907Z" transform="translate(-0.115 -100.07)" fill="#1a2f50"/>
        </g>
        <g id="XMLID_5190_" transform="translate(7.169 8.065)">
          <path id="XMLID_751_" d="M90.072,112.616H64.982a.9.9,0,0,1-.9-.9V100.967a.9.9,0,0,1,.9-.9h25.09a.9.9,0,0,1,.9.9V111.72A.9.9,0,0,1,90.072,112.616Zm-24.194-1.792h23.3v-8.961h-23.3Z" transform="translate(-64.086 -100.071)" fill="#1a2f50"/>
        </g>
        <g id="XMLID_5189_" transform="translate(12.545 28.676)">
          <path id="XMLID_750_" d="M127.3,285.793H112.961a.9.9,0,0,1,0-1.793H127.3a.9.9,0,0,1,0,1.793Z" transform="translate(-112.065 -284)" fill="#1a2f50"/>
        </g>
        <g id="XMLID_5188_" transform="translate(12.545 32.262)">
          <path id="XMLID_749_" d="M127.3,317.793H112.961a.9.9,0,0,1,0-1.793H127.3a.9.9,0,0,1,0,1.793Z" transform="translate(-112.065 -316)" fill="#1a2f50"/>
        </g>
        <g id="XMLID_5187_" transform="translate(12.545 35.848)">
          <path id="XMLID_748_" d="M127.3,349.793H112.961a.9.9,0,0,1,0-1.793H127.3a.9.9,0,0,1,0,1.793Z" transform="translate(-112.065 -348)" fill="#1a2f50"/>
        </g>
        <g id="XMLID_5186_" transform="translate(43.908 16.129)">
          <path id="XMLID_745_" d="M394.627,206.985a2.691,2.691,0,0,1-2.688-2.688V172.934a.9.9,0,0,1,.9-.9h3.584a.9.9,0,0,1,.9.9V204.3A2.691,2.691,0,0,1,394.627,206.985Zm-.9-33.155V204.3a.9.9,0,1,0,1.792,0V173.83Z" transform="translate(-391.939 -172.038)" fill="#1a2f50"/>
        </g>
        <g id="XMLID_5185_" transform="translate(45.7 1.792)">
          <path id="XMLID_744_" d="M408.828,60.224a.9.9,0,0,1-.9-.9V48.575a4.486,4.486,0,0,1,4.48-4.48.9.9,0,0,1,0,1.792,2.691,2.691,0,0,0-2.688,2.688V59.328A.9.9,0,0,1,408.828,60.224Z" transform="translate(-407.932 -44.095)" fill="#1a2f50"/>
        </g>
        <g id="XMLID_5184_" transform="translate(49.285 0)">
          <path id="XMLID_741_" d="M442.606,33.479a2.688,2.688,0,1,1,0-5.376,11.424,11.424,0,0,1,2.889.569c1.068.348,2.488.946,2.488,2.119s-1.42,1.772-2.488,2.119A11.423,11.423,0,0,1,442.606,33.479Zm0-3.584a.9.9,0,1,0,0,1.792,9.878,9.878,0,0,0,3.354-.9A9.879,9.879,0,0,0,442.606,29.9Z" transform="translate(-439.918 -28.103)" fill="#1a2f50"/>
        </g>
      </g>
    </g>
  </g>
</svg>
