<svg xmlns="http://www.w3.org/2000/svg" xmlns:xlink="http://www.w3.org/1999/xlink" width="108.914" height="108.914" viewBox="0 0 108.914 108.914">
  <defs>
    <filter id="Trazado_874925" x="0" y="0" width="108.914" height="108.914" filterUnits="userSpaceOnUse">
      <feOffset dy="3" input="SourceAlpha"/>
      <feGaussianBlur stdDeviation="3" result="blur"/>
      <feFlood flood-opacity="0.161"/>
      <feComposite operator="in" in2="blur"/>
      <feComposite in="SourceGraphic"/>
    </filter>
  </defs>
  <g id="Grupo_1113838" data-name="Grupo 1113838" transform="translate(-761.051 -2264)">
    <g transform="matrix(1, 0, 0, 1, 761.05, 2264)" filter="url(#Trazado_874925)">
      <g id="Trazado_874925-2" data-name="Trazado 874925" transform="translate(9 6)" fill="#fecfb5" opacity="0.859">
        <path d="M 45.45676803588867 89.41407012939453 C 39.52198028564453 89.41407012939453 33.76551818847656 88.25206756591797 28.34726715087891 85.96034240722656 C 23.11311721801758 83.74648284912109 18.41204261779785 80.57682800292969 14.37464332580566 76.5394287109375 C 10.33724308013916 72.50202941894531 7.167593002319336 67.80095672607422 4.953730583190918 62.56679534912109 C 2.662005424499512 57.14855575561523 1.500005483627319 51.39208221435547 1.500005483627319 45.45729446411133 C 1.500005483627319 39.52198028564453 2.662005424499512 33.76551818847656 4.953730583190918 28.34726905822754 C 7.167593002319336 23.11310577392578 10.33724308013916 18.41203117370605 14.37464332580566 14.37464332580566 C 18.41204261779785 10.33724403381348 23.11311721801758 7.167593955993652 28.34726715087891 4.953731060028076 C 33.76551818847656 2.662006139755249 39.52198028564453 1.500006198883057 45.45676803588867 1.500006198883057 C 51.39155578613281 1.500006198883057 57.14802932739258 2.662006139755249 62.56626892089844 4.953731060028076 C 67.80043029785156 7.167593955993652 72.50150299072266 10.33724403381348 76.53890228271484 14.37464332580566 C 80.57630920410156 18.41203117370605 83.74595642089844 23.11310577392578 85.95981597900391 28.34726905822754 C 88.25154113769531 33.76551818847656 89.41354370117188 39.52198028564453 89.41354370117188 45.45676803588867 C 89.41354370117188 51.39208221435547 88.25154113769531 57.14855575561523 85.95981597900391 62.56679534912109 C 83.74595642089844 67.80095672607422 80.57630920410156 72.50202941894531 76.53890228271484 76.5394287109375 C 72.50150299072266 80.57682800292969 67.80043029785156 83.74648284912109 62.56626892089844 85.96034240722656 C 57.14802932739258 88.25206756591797 51.39155578613281 89.41407012939453 45.45676803588867 89.41407012939453 Z" stroke="none"/>
        <path d="M 45.45676803588867 3 C 39.72381210327148 3 34.1639404296875 4.12213134765625 28.93159484863281 6.335227966308594 C 23.87622833251953 8.473472595214844 19.33542633056641 11.53517150878906 15.43529510498047 15.435302734375 C 11.53517150878906 19.33543395996094 8.473464965820312 23.87622833251953 6.335227966308594 28.93160247802734 C 4.122123718261719 34.16394424438477 3 39.72381591796875 3 45.4572868347168 C 3 51.19024658203125 4.122123718261719 56.75011825561523 6.335227966308594 61.98246002197266 C 8.473464965820312 67.03782653808594 11.53517150878906 71.57862854003906 15.43529510498047 75.478759765625 C 19.33542633056641 79.37889099121094 23.87622833251953 82.44058990478516 28.93159484863281 84.57883453369141 C 34.1639404296875 86.79193115234375 39.72381210327148 87.9140625 45.45676803588867 87.9140625 C 51.18972396850586 87.9140625 56.74959564208984 86.79193115234375 61.98194122314453 84.57883453369141 C 67.03730773925781 82.44058990478516 71.57810974121094 79.37889099121094 75.47824096679688 75.478759765625 C 79.37837219238281 71.57862854003906 82.44007110595703 67.03782653808594 84.57830810546875 61.98246002197266 C 86.79141235351562 56.75011825561523 87.91353607177734 51.19024658203125 87.91353607177734 45.4567756652832 C 87.91353607177734 39.72381591796875 86.79141235351562 34.16394424438477 84.57830810546875 28.93160247802734 C 82.44007110595703 23.87622833251953 79.37837219238281 19.33543395996094 75.47824096679688 15.435302734375 C 71.57810974121094 11.53517150878906 67.03730773925781 8.473472595214844 61.98194122314453 6.335227966308594 C 56.74959564208984 4.12213134765625 51.18972396850586 3 45.45676803588867 3 M 45.45676803588867 0 C 70.56185150146484 0 90.91353607177734 20.35169219970703 90.91353607177734 45.4567756652832 L 90.91353607177734 45.4572868347168 C 90.91353607177734 70.5623779296875 70.56185150146484 90.9140625 45.45676803588867 90.9140625 C 20.3516845703125 90.9140625 0 70.5623779296875 0 45.4572868347168 L 0 45.4567756652832 C 0 20.35169219970703 20.3516845703125 0 45.45676803588867 0 Z" stroke="none" fill="#fff"/>
      </g>
    </g>
    <g id="Grupo_1113837" data-name="Grupo 1113837" transform="translate(789.051 2290)">
      <path id="Trazado_906719" data-name="Trazado 906719" d="M58.489,324.887v6.657H8v-6.657a8.143,8.143,0,0,1,5.176-7.583L26.73,312H39.759l13.554,5.3A8.143,8.143,0,0,1,58.489,324.887Z" transform="translate(-7.186 -280.241)" fill="#596060"/>
      <path id="Trazado_906720" data-name="Trazado 906720" d="M8,480H58.489v2.443H8Z" transform="translate(-7.186 -431.14)" fill="#4c5657"/>
      <path id="Trazado_906721" data-name="Trazado 906721" d="M51.3,325.172a.814.814,0,0,1-.814-.814V317.7a7.286,7.286,0,0,0-4.658-6.825L32.42,305.628H19.7L6.287,310.875A7.286,7.286,0,0,0,1.629,317.7v6.657a.814.814,0,0,1-1.629,0V317.7a8.958,8.958,0,0,1,5.693-8.347l13.554-5.3a.823.823,0,0,1,.3-.051H32.573a.823.823,0,0,1,.3.056l13.554,5.3a8.958,8.958,0,0,1,5.693,8.347v6.652A.814.814,0,0,1,51.3,325.172Z" transform="translate(0 -273.055)"/>
      <path id="Trazado_906722" data-name="Trazado 906722" d="M124.886,321.39v10.445H120V323.3Z" transform="translate(-107.785 -288.675)" fill="#dcdcdc"/>
      <path id="Trazado_906723" data-name="Trazado 906723" d="M120,400h4.886v2.443H120Z" transform="translate(-107.785 -359.283)" fill="#bbb"/>
      <path id="Trazado_906724" data-name="Trazado 906724" d="M117.7,325.462h-4.886a.814.814,0,0,1-.814-.814v-8.533a.814.814,0,0,1,.517-.758l4.886-1.912a.814.814,0,0,1,1.112.758v10.445A.814.814,0,0,1,117.7,325.462Zm-4.072-1.629h3.257V315.4l-3.257,1.274Z" transform="translate(-100.599 -281.488)"/>
      <path id="Trazado_906725" data-name="Trazado 906725" d="M348.886,323.3v8.533H344V321.39Z" transform="translate(-308.984 -288.675)" fill="#dcdcdc"/>
      <path id="Trazado_906726" data-name="Trazado 906726" d="M344,400h4.886v2.443H344Z" transform="translate(-308.984 -359.283)" fill="#bbb"/>
      <path id="Trazado_906727" data-name="Trazado 906727" d="M341.7,325.462h-4.886a.814.814,0,0,1-.814-.814V314.2a.814.814,0,0,1,1.112-.758L342,315.356a.814.814,0,0,1,.517.758v8.533A.814.814,0,0,1,341.7,325.462Zm-4.072-1.629h3.257V316.67l-3.257-1.274Z" transform="translate(-301.798 -281.488)"/>
      <path id="Trazado_906728" data-name="Trazado 906728" d="M147.687,15.685V33.634a11.828,11.828,0,0,1-11.825,11.825h-4.037A11.828,11.828,0,0,1,120,33.634V15.685A7.687,7.687,0,0,1,127.685,8H140a7.688,7.688,0,0,1,7.685,7.685Z" transform="translate(-107.785 -7.186)" fill="#5f79a5"/>
      <path id="Trazado_906729" data-name="Trazado 906729" d="M143.717,244.669a11.825,11.825,0,0,1-7.855,2.987h-4.037A11.826,11.826,0,0,1,120,235.83v2.443A11.829,11.829,0,0,0,131.825,250.1h4.037a11.826,11.826,0,0,0,11.825-11.825V235.83a11.826,11.826,0,0,1-3.969,8.838Z" transform="translate(-107.785 -211.825)" fill="#586f99"/>
      <path id="Trazado_906730" data-name="Trazado 906730" d="M128.676,39.088h-4.037A12.643,12.643,0,0,1,112,26.448V13.029a.814.814,0,1,1,1.629,0V26.448a11.014,11.014,0,0,0,11.011,11.011h4.037a11.015,11.015,0,0,0,11.011-11.011V8.5a6.874,6.874,0,0,0-6.871-6.871H120.5A6.874,6.874,0,0,0,113.629,8.5V9.772a.814.814,0,0,1-1.629,0V8.5A8.5,8.5,0,0,1,120.5,0h12.317a8.5,8.5,0,0,1,8.5,8.5V26.448A12.642,12.642,0,0,1,128.68,39.088Z" transform="translate(-100.599)"/>
      <path id="Trazado_906731" data-name="Trazado 906731" d="M91.257,424h27.687a3.257,3.257,0,0,1,3.257,3.257v4.886H88v-4.886A3.257,3.257,0,0,1,91.257,424Z" transform="translate(-79.042 -380.84)" fill="#dcdcdc"/>
      <path id="Trazado_906732" data-name="Trazado 906732" d="M88,480h34.2v2.443H88Z" transform="translate(-79.042 -431.14)" fill="#bbb"/>
      <path id="Trazado_906733" data-name="Trazado 906733" d="M115.016,425.772a.814.814,0,0,1-.814-.814v-4.886a2.443,2.443,0,0,0-2.443-2.443H84.072a2.443,2.443,0,0,0-2.443,2.443v4.886a.814.814,0,0,1-1.629,0v-4.886A4.072,4.072,0,0,1,84.072,416h27.687a4.072,4.072,0,0,1,4.072,4.072v4.886A.814.814,0,0,1,115.016,425.772Z" transform="translate(-71.857 -373.655)"/>
      <path id="Trazado_906734" data-name="Trazado 906734" d="M168,96h17.915v11.4H168Z" transform="translate(-150.899 -86.228)" fill="#a8edfd"/>
      <path id="Trazado_906735" data-name="Trazado 906735" d="M168,184h17.915v2.443H168Z" transform="translate(-150.899 -165.27)" fill="#8bd4de"/>
      <path id="Trazado_906736" data-name="Trazado 906736" d="M178.73,101.029H160.814a.814.814,0,0,1-.814-.814v-11.4a.814.814,0,0,1,.814-.814H178.73a.814.814,0,0,1,.814.814v11.4A.814.814,0,0,1,178.73,101.029Zm-17.1-1.629h16.287V89.629H161.629Z" transform="translate(-143.713 -79.042)"/>
      <path id="Trazado_906737" data-name="Trazado 906737" d="M88,128h3.257v8.143H88Z" transform="translate(-79.042 -114.971)" fill="#f6f6f6"/>
      <path id="Trazado_906738" data-name="Trazado 906738" d="M84.072,129.772H80.814a.814.814,0,0,1-.814-.814v-8.143a.814.814,0,0,1,.814-.814h3.257a.814.814,0,0,1,.814.814v8.143A.814.814,0,0,1,84.072,129.772Zm-2.443-1.629h1.629v-6.515H81.629Z" transform="translate(-71.857 -107.785)"/>
      <path id="Trazado_906739" data-name="Trazado 906739" d="M392,128h3.257v8.143H392Z" transform="translate(-352.098 -114.971)" fill="#f6f6f6"/>
      <path id="Trazado_906740" data-name="Trazado 906740" d="M388.072,129.772h-3.257a.814.814,0,0,1-.814-.814v-8.143a.814.814,0,0,1,.814-.814h3.257a.814.814,0,0,1,.814.814v8.143A.814.814,0,0,1,388.072,129.772Zm-2.443-1.629h1.629v-6.515h-1.629Z" transform="translate(-344.912 -107.785)"/>
      <path id="Trazado_906741" data-name="Trazado 906741" d="M168.814,57.629a.814.814,0,1,1,.814-.814A.814.814,0,0,1,168.814,57.629Z" transform="translate(-150.899 -50.3)"/>
      <path id="Trazado_906742" data-name="Trazado 906742" d="M208.814,57.629a.814.814,0,1,1,.814-.814A.814.814,0,0,1,208.814,57.629Z" transform="translate(-186.827 -50.3)"/>
      <path id="Trazado_906743" data-name="Trazado 906743" d="M328.814,57.629a.814.814,0,1,1,.814-.814A.814.814,0,0,1,328.814,57.629Z" transform="translate(-294.612 -50.3)"/>
      <path id="Trazado_906744" data-name="Trazado 906744" d="M288.814,57.629a.814.814,0,1,1,.814-.814A.814.814,0,0,1,288.814,57.629Z" transform="translate(-258.684 -50.3)"/>
      <path id="Trazado_906745" data-name="Trazado 906745" d="M248.814,57.629a.814.814,0,1,1,.814-.814A.814.814,0,0,1,248.814,57.629Z" transform="translate(-222.756 -50.3)"/>
      <path id="Trazado_906746" data-name="Trazado 906746" d="M168.814,233.629a.814.814,0,1,1,.814-.814A.814.814,0,0,1,168.814,233.629Z" transform="translate(-150.899 -208.384)"/>
      <path id="Trazado_906747" data-name="Trazado 906747" d="M208.814,233.629a.814.814,0,1,1,.814-.814A.814.814,0,0,1,208.814,233.629Z" transform="translate(-186.827 -208.384)"/>
      <path id="Trazado_906748" data-name="Trazado 906748" d="M328.814,233.629a.814.814,0,1,1,.814-.814A.814.814,0,0,1,328.814,233.629Z" transform="translate(-294.612 -208.384)"/>
      <path id="Trazado_906749" data-name="Trazado 906749" d="M288.814,233.629a.814.814,0,1,1,.814-.814A.814.814,0,0,1,288.814,233.629Z" transform="translate(-258.684 -208.384)"/>
      <path id="Trazado_906750" data-name="Trazado 906750" d="M248.814,233.629a.814.814,0,1,1,.814-.814A.814.814,0,0,1,248.814,233.629Z" transform="translate(-222.756 -208.384)"/>
      <path id="Trazado_906751" data-name="Trazado 906751" d="M232.808,123.253a.814.814,0,0,1-.576-1.39l1.629-1.629a.815.815,0,1,1,1.152,1.152l-1.629,1.629A.814.814,0,0,1,232.808,123.253Z" transform="translate(-208.379 -107.781)"/>
      <path id="Trazado_906752" data-name="Trazado 906752" d="M248.808,155.253a.814.814,0,0,1-.576-1.39l1.629-1.629a.815.815,0,0,1,1.152,1.152l-1.629,1.629A.814.814,0,0,1,248.808,155.253Z" transform="translate(-222.75 -136.524)"/>
      <path id="Trazado_906753" data-name="Trazado 906753" d="M136.814,457.629a.814.814,0,1,1,.814-.814A.814.814,0,0,1,136.814,457.629Z" transform="translate(-122.156 -409.583)"/>
      <path id="Trazado_906754" data-name="Trazado 906754" d="M360.814,457.629a.814.814,0,1,1,.814-.814A.814.814,0,0,1,360.814,457.629Z" transform="translate(-323.355 -409.583)"/>
    </g>
  </g>
</svg>
