<svg xmlns="http://www.w3.org/2000/svg" xmlns:xlink="http://www.w3.org/1999/xlink" width="108.914" height="108.914" viewBox="0 0 108.914 108.914">
  <defs>
    <filter id="Trazado_874925" x="0" y="0" width="108.914" height="108.914" filterUnits="userSpaceOnUse">
      <feOffset dy="3" input="SourceAlpha"/>
      <feGaussianBlur stdDeviation="3" result="blur"/>
      <feFlood flood-opacity="0.161"/>
      <feComposite operator="in" in2="blur"/>
      <feComposite in="SourceGraphic"/>
    </filter>
  </defs>
  <g id="Grupo_1113843" data-name="Grupo 1113843" transform="translate(-1076.051 -2264)">
    <g transform="matrix(1, 0, 0, 1, 1076.05, 2264)" filter="url(#Trazado_874925)">
      <g id="Trazado_874925-2" data-name="Trazado 874925" transform="translate(9 6)" fill="#fecfb5" opacity="0.859">
        <path d="M 45.45676803588867 89.41407012939453 C 39.52198028564453 89.41407012939453 33.76551818847656 88.25206756591797 28.34726715087891 85.96034240722656 C 23.11311721801758 83.74648284912109 18.41204261779785 80.57682800292969 14.37464332580566 76.5394287109375 C 10.33724308013916 72.50202941894531 7.167593002319336 67.80095672607422 4.953730583190918 62.56679534912109 C 2.662005424499512 57.14855575561523 1.500005483627319 51.39208221435547 1.500005483627319 45.45729446411133 C 1.500005483627319 39.52198028564453 2.662005424499512 33.76551818847656 4.953730583190918 28.34726905822754 C 7.167593002319336 23.11310577392578 10.33724308013916 18.41203117370605 14.37464332580566 14.37464332580566 C 18.41204261779785 10.33724403381348 23.11311721801758 7.167593955993652 28.34726715087891 4.953731060028076 C 33.76551818847656 2.662006139755249 39.52198028564453 1.500006198883057 45.45676803588867 1.500006198883057 C 51.39155578613281 1.500006198883057 57.14802932739258 2.662006139755249 62.56626892089844 4.953731060028076 C 67.80043029785156 7.167593955993652 72.50150299072266 10.33724403381348 76.53890228271484 14.37464332580566 C 80.57630920410156 18.41203117370605 83.74595642089844 23.11310577392578 85.95981597900391 28.34726905822754 C 88.25154113769531 33.76551818847656 89.41354370117188 39.52198028564453 89.41354370117188 45.45676803588867 C 89.41354370117188 51.39208221435547 88.25154113769531 57.14855575561523 85.95981597900391 62.56679534912109 C 83.74595642089844 67.80095672607422 80.57630920410156 72.50202941894531 76.53890228271484 76.5394287109375 C 72.50150299072266 80.57682800292969 67.80043029785156 83.74648284912109 62.56626892089844 85.96034240722656 C 57.14802932739258 88.25206756591797 51.39155578613281 89.41407012939453 45.45676803588867 89.41407012939453 Z" stroke="none"/>
        <path d="M 45.45676803588867 3 C 39.72381210327148 3 34.1639404296875 4.12213134765625 28.93159484863281 6.335227966308594 C 23.87622833251953 8.473472595214844 19.33542633056641 11.53517150878906 15.43529510498047 15.435302734375 C 11.53517150878906 19.33543395996094 8.473464965820312 23.87622833251953 6.335227966308594 28.93160247802734 C 4.122123718261719 34.16394424438477 3 39.72381591796875 3 45.4572868347168 C 3 51.19024658203125 4.122123718261719 56.75011825561523 6.335227966308594 61.98246002197266 C 8.473464965820312 67.03782653808594 11.53517150878906 71.57862854003906 15.43529510498047 75.478759765625 C 19.33542633056641 79.37889099121094 23.87622833251953 82.44058990478516 28.93159484863281 84.57883453369141 C 34.1639404296875 86.79193115234375 39.72381210327148 87.9140625 45.45676803588867 87.9140625 C 51.18972396850586 87.9140625 56.74959564208984 86.79193115234375 61.98194122314453 84.57883453369141 C 67.03730773925781 82.44058990478516 71.57810974121094 79.37889099121094 75.47824096679688 75.478759765625 C 79.37837219238281 71.57862854003906 82.44007110595703 67.03782653808594 84.57830810546875 61.98246002197266 C 86.79141235351562 56.75011825561523 87.91353607177734 51.19024658203125 87.91353607177734 45.4567756652832 C 87.91353607177734 39.72381591796875 86.79141235351562 34.16394424438477 84.57830810546875 28.93160247802734 C 82.44007110595703 23.87622833251953 79.37837219238281 19.33543395996094 75.47824096679688 15.435302734375 C 71.57810974121094 11.53517150878906 67.03730773925781 8.473472595214844 61.98194122314453 6.335227966308594 C 56.74959564208984 4.12213134765625 51.18972396850586 3 45.45676803588867 3 M 45.45676803588867 0 C 70.56185150146484 0 90.91353607177734 20.35169219970703 90.91353607177734 45.4567756652832 L 90.91353607177734 45.4572868347168 C 90.91353607177734 70.5623779296875 70.56185150146484 90.9140625 45.45676803588867 90.9140625 C 20.3516845703125 90.9140625 0 70.5623779296875 0 45.4572868347168 L 0 45.4567756652832 C 0 20.35169219970703 20.3516845703125 0 45.45676803588867 0 Z" stroke="none" fill="#fff"/>
      </g>
    </g>
    <g id="Grupo_1113842" data-name="Grupo 1113842" transform="translate(1096 2280.947)">
      <g id="Grupo_1113841" data-name="Grupo 1113841" transform="translate(9.68 9.725)">
        <g id="Grupo_1113839" data-name="Grupo 1113839" transform="translate(0 0)">
          <path id="Trazado_906755" data-name="Trazado 906755" d="M39.925,179.039h3.031V176.4a.517.517,0,0,0-.516-.516h-2a.517.517,0,0,0-.516.516v2.638Zm14.3,0h3.031V176.4a.517.517,0,0,0-.516-.516h-2a.517.517,0,0,0-.516.516v2.638Z" transform="translate(-37.411 -159.373)" fill="#424852" fill-rule="evenodd"/>
          <path id="Trazado_906756" data-name="Trazado 906756" d="M16.1,228.468H37.483a.517.517,0,0,0,.516-.516V198.174a.517.517,0,0,0-.516-.516H16.1a.517.517,0,0,0-.516.516v29.778A.517.517,0,0,0,16.1,228.468Z" transform="translate(-15.581 -178.898)" fill="#636c77" fill-rule="evenodd"/>
          <path id="Trazado_906757" data-name="Trazado 906757" d="M47.093,231.837H62.077a.517.517,0,0,1,.516.516v4.516a.517.517,0,0,1-.516.516H47.093a.517.517,0,0,1-.516-.516v-4.516A.517.517,0,0,1,47.093,231.837Z" transform="translate(-43.376 -209.547)" fill="#a4d4ff" fill-rule="evenodd"/>
          <ellipse id="Elipse_11910" data-name="Elipse 11910" cx="3.641" cy="3.641" rx="3.641" ry="3.641" transform="translate(6.836 35.716) rotate(-13.3)" fill="#424852"/>
          <path id="Trazado_906758" data-name="Trazado 906758" d="M333.265,16h7.071a.517.517,0,0,1,.516.516v2.123a.517.517,0,0,1-.516.516h-7.071a.517.517,0,0,1-.516-.516V16.516A.517.517,0,0,1,333.265,16Z" transform="translate(-299.994 -16)" fill="#424852" fill-rule="evenodd"/>
          <path id="Trazado_906759" data-name="Trazado 906759" d="M333.265,85.724h7.071a.517.517,0,0,1,.516.516v2.123a.517.517,0,0,1-.516.516h-7.071a.517.517,0,0,1-.516-.516V86.24A.517.517,0,0,1,333.265,85.724Z" transform="translate(-299.994 -78.523)" fill="#eb5463" fill-rule="evenodd"/>
        </g>
        <g id="Grupo_1113840" data-name="Grupo 1113840" transform="translate(28.46 31.764)">
          <path id="Trazado_906760" data-name="Trazado 906760" d="M330.927,323.579h1.681a.517.517,0,0,1,.516.516v2.685a.517.517,0,0,1-.516.516h-1.681a.517.517,0,0,1-.516-.516V324.1A.517.517,0,0,1,330.927,323.579Zm-12.97,0h1.681a.517.517,0,0,1,.516.516v2.685a.517.517,0,0,1-.516.516h-1.681a.517.517,0,0,1-.516-.516V324.1A.517.517,0,0,1,317.956,323.579Z" transform="translate(-314.727 -323.579)" fill="#636c77" fill-rule="evenodd"/>
          <path id="Trazado_906761" data-name="Trazado 906761" d="M311.761,362.147H291.683a.517.517,0,0,1-.516-.516V347.248a.517.517,0,0,1,.516-.516h20.078a.517.517,0,0,1,.516.516v14.383a.517.517,0,0,1-.516.516Z" transform="translate(-291.167 -344.341)" fill="#424852" fill-rule="evenodd"/>
          <path id="Trazado_906762" data-name="Trazado 906762" d="M311.761,382.911H291.683a.517.517,0,0,1-.516-.516V369.887h21.11v12.508A.517.517,0,0,1,311.761,382.911Z" transform="translate(-291.167 -365.105)" fill="#636c77" fill-rule="evenodd"/>
        </g>
      </g>
      <path id="Trazado_906763" data-name="Trazado 906763" d="M49.859,19.358H43.2V17.649h6.658Zm-21.014,8.4H27.26v-.8h1.585Zm2.575,30.81H10.446V29.208H31.42ZM12.961,26.96h1.585v.8H12.961ZM43.2,10.448h6.658v1.71H43.2ZM59.294,17.78H51.3v-.854a.723.723,0,0,0-.723-.723h-8.1a.722.722,0,0,0-.723.723v.854h-13.7a.723.723,0,0,0-.723.723v7.011h-.792a.722.722,0,0,0-.723.723v1.526H15.991V26.237a.723.723,0,0,0-.723-.723h-.793V12.026H41.755v.855a.723.723,0,0,0,.723.723h8.1a.723.723,0,0,0,.723-.723v-.855h7.989a.723.723,0,0,0,0-1.446H51.3V9.725A.722.722,0,0,0,50.582,9h-8.1a.722.722,0,0,0-.723.723v.855h-28a.723.723,0,0,0-.723.723V25.514h-.792a.722.722,0,0,0-.723.723v1.526H9.723A.723.723,0,0,0,9,28.485V59.3a.723.723,0,0,0,.723.723H32.142a.723.723,0,0,0,.723-.723V28.485a.723.723,0,0,0-.723-.723H30.291V26.237a.723.723,0,0,0-.723-.723h-.793V19.226h12.98v.855a.722.722,0,0,0,.723.723h8.1a.723.723,0,0,0,.723-.723v-.855h7.989a.723.723,0,0,0,0-1.446ZM20.932,42.864a.723.723,0,0,0,.723-.723V41.083a.723.723,0,0,0-1.446,0v1.058A.724.724,0,0,0,20.932,42.864Zm.723,11.314a.723.723,0,0,0-1.446,0v1.058a.723.723,0,0,0,1.446,0Zm-6.741-5.3a.723.723,0,0,0,0-1.446H13.857a.723.723,0,1,0,0,1.446ZM17.188,51.9a.724.724,0,0,0-1.023,0l-.747.748a.723.723,0,1,0,1.023,1.022l.747-.747A.724.724,0,0,0,17.188,51.9Zm-1.023-7.488a.723.723,0,1,0,1.023-1.023l-.747-.747a.723.723,0,1,0-1.023,1.021Zm9.022.211a.724.724,0,0,0,.511-.211l.747-.749a.722.722,0,0,0-1.022-1.021l-.747.747a.723.723,0,0,0,.511,1.234Zm3.544,3.532a.723.723,0,0,0-.723-.723H26.951a.723.723,0,1,0,0,1.446h1.057A.722.722,0,0,0,28.731,48.159Zm-2.285,4.492L25.7,51.9a.723.723,0,0,0-1.022,1.023l.747.747a.723.723,0,1,0,1.022-1.022Zm-5.514-1.574a2.918,2.918,0,1,0-1.487-5.428l2,2a.722.722,0,1,1-1.021,1.021l-2-2a2.918,2.918,0,0,0,2.51,4.405Zm0-7.282A4.364,4.364,0,1,0,25.3,48.159,4.368,4.368,0,0,0,20.932,43.8ZM13.647,32.738v4.1H28.218v-4.1Zm-.723,5.548H28.941a.723.723,0,0,0,.723-.723V32.015a.723.723,0,0,0-.723-.723H12.925a.723.723,0,0,0-.723.723v5.547a.722.722,0,0,0,.723.723ZM57.3,49.835a.723.723,0,0,1-.723.723h-.634v.634a.723.723,0,1,1-1.446,0v-.634h-.633a.723.723,0,1,1,0-1.445H54.5V48.48a.723.723,0,0,1,1.446,0v.633h.634A.723.723,0,0,1,57.3,49.835Zm-12.971,0a.722.722,0,0,1-.723.723H40.9a.723.723,0,0,1,0-1.445h2.713A.723.723,0,0,1,44.333,49.835Zm13.928,8.737H39.216a.311.311,0,0,1-.31-.31V46.995H58.571V58.263A.311.311,0,0,1,58.261,58.573ZM39.216,44.6H58.261a.31.31,0,0,1,.31.31v.636H38.907v-.636a.31.31,0,0,1,.31-.31Zm2.4-2.391h1.267v.945H41.62Zm12.971,0h1.267v.945H54.591Zm3.67.945a1.757,1.757,0,0,1,1.756,1.756v13.35a1.757,1.757,0,0,1-1.756,1.756H39.216a1.757,1.757,0,0,1-1.756-1.756V44.913a1.757,1.757,0,0,1,1.756-1.756h.957V41.489a.723.723,0,0,1,.723-.723h2.713a.722.722,0,0,1,.723.723v1.668h8.812V41.489a.722.722,0,0,1,.723-.723h2.713a.722.722,0,0,1,.723.723v1.668Z" transform="translate(0)" fill-rule="evenodd"/>
    </g>
  </g>
</svg>
