<svg xmlns="http://www.w3.org/2000/svg" xmlns:xlink="http://www.w3.org/1999/xlink" width="108.914" height="108.914" viewBox="0 0 108.914 108.914">
  <defs>
    <filter id="Trazado_874925" x="0" y="0" width="108.914" height="108.914" filterUnits="userSpaceOnUse">
      <feOffset dy="3" input="SourceAlpha"/>
      <feGaussianBlur stdDeviation="3" result="blur"/>
      <feFlood flood-opacity="0.161"/>
      <feComposite operator="in" in2="blur"/>
      <feComposite in="SourceGraphic"/>
    </filter>
  </defs>
  <g id="Grupo_1113848" data-name="Grupo 1113848" transform="translate(6899.317 9037.861)">
    <g transform="matrix(1, 0, 0, 1, -6899.32, -9037.86)" filter="url(#Trazado_874925)">
      <g id="Trazado_874925-2" data-name="Trazado 874925" transform="translate(9 6)" fill="#fecfb5" opacity="0.859">
        <path d="M 45.45676803588867 89.41407012939453 C 39.52198028564453 89.41407012939453 33.76551818847656 88.25206756591797 28.34726715087891 85.96034240722656 C 23.11311721801758 83.74648284912109 18.41204261779785 80.57682800292969 14.37464332580566 76.5394287109375 C 10.33724308013916 72.50202941894531 7.167593002319336 67.80095672607422 4.953730583190918 62.56679534912109 C 2.662005424499512 57.14855575561523 1.500005483627319 51.39208221435547 1.500005483627319 45.45729446411133 C 1.500005483627319 39.52198028564453 2.662005424499512 33.76551818847656 4.953730583190918 28.34726905822754 C 7.167593002319336 23.11310577392578 10.33724308013916 18.41203117370605 14.37464332580566 14.37464332580566 C 18.41204261779785 10.33724403381348 23.11311721801758 7.167593955993652 28.34726715087891 4.953731060028076 C 33.76551818847656 2.662006139755249 39.52198028564453 1.500006198883057 45.45676803588867 1.500006198883057 C 51.39155578613281 1.500006198883057 57.14802932739258 2.662006139755249 62.56626892089844 4.953731060028076 C 67.80043029785156 7.167593955993652 72.50150299072266 10.33724403381348 76.53890228271484 14.37464332580566 C 80.57630920410156 18.41203117370605 83.74595642089844 23.11310577392578 85.95981597900391 28.34726905822754 C 88.25154113769531 33.76551818847656 89.41354370117188 39.52198028564453 89.41354370117188 45.45676803588867 C 89.41354370117188 51.39208221435547 88.25154113769531 57.14855575561523 85.95981597900391 62.56679534912109 C 83.74595642089844 67.80095672607422 80.57630920410156 72.50202941894531 76.53890228271484 76.5394287109375 C 72.50150299072266 80.57682800292969 67.80043029785156 83.74648284912109 62.56626892089844 85.96034240722656 C 57.14802932739258 88.25206756591797 51.39155578613281 89.41407012939453 45.45676803588867 89.41407012939453 Z" stroke="none"/>
        <path d="M 45.45676803588867 3 C 39.72381210327148 3 34.1639404296875 4.12213134765625 28.93159484863281 6.335227966308594 C 23.87622833251953 8.473472595214844 19.33542633056641 11.53517150878906 15.43529510498047 15.435302734375 C 11.53517150878906 19.33543395996094 8.473464965820312 23.87622833251953 6.335227966308594 28.93160247802734 C 4.122123718261719 34.16394424438477 3 39.72381591796875 3 45.4572868347168 C 3 51.19024658203125 4.122123718261719 56.75011825561523 6.335227966308594 61.98246002197266 C 8.473464965820312 67.03782653808594 11.53517150878906 71.57862854003906 15.43529510498047 75.478759765625 C 19.33542633056641 79.37889099121094 23.87622833251953 82.44058990478516 28.93159484863281 84.57883453369141 C 34.1639404296875 86.79193115234375 39.72381210327148 87.9140625 45.45676803588867 87.9140625 C 51.18972396850586 87.9140625 56.74959564208984 86.79193115234375 61.98194122314453 84.57883453369141 C 67.03730773925781 82.44058990478516 71.57810974121094 79.37889099121094 75.47824096679688 75.478759765625 C 79.37837219238281 71.57862854003906 82.44007110595703 67.03782653808594 84.57830810546875 61.98246002197266 C 86.79141235351562 56.75011825561523 87.91353607177734 51.19024658203125 87.91353607177734 45.4567756652832 C 87.91353607177734 39.72381591796875 86.79141235351562 34.16394424438477 84.57830810546875 28.93160247802734 C 82.44007110595703 23.87622833251953 79.37837219238281 19.33543395996094 75.47824096679688 15.435302734375 C 71.57810974121094 11.53517150878906 67.03730773925781 8.473472595214844 61.98194122314453 6.335227966308594 C 56.74959564208984 4.12213134765625 51.18972396850586 3 45.45676803588867 3 M 45.45676803588867 0 C 70.56185150146484 0 90.91353607177734 20.35169219970703 90.91353607177734 45.4567756652832 L 90.91353607177734 45.4572868347168 C 90.91353607177734 70.5623779296875 70.56185150146484 90.9140625 45.45676803588867 90.9140625 C 20.3516845703125 90.9140625 0 70.5623779296875 0 45.4572868347168 L 0 45.4567756652832 C 0 20.35169219970703 20.3516845703125 0 45.45676803588867 0 Z" stroke="none" fill="#fff"/>
      </g>
    </g>
    <g id="Grupo_1113847" data-name="Grupo 1113847" transform="translate(-6928.117 -9022.404)">
      <g id="Grupo_1113846" data-name="Grupo 1113846" transform="translate(61.664 8.905)">
        <g id="Grupo_1113844" data-name="Grupo 1113844" transform="translate(0 0)">
          <path id="Trazado_906764" data-name="Trazado 906764" d="M108.62,56.986a2.434,2.434,0,0,1,2.43,2.43v44.7a2.434,2.434,0,0,1-2.43,2.43H71.2a2.434,2.434,0,0,1-2.43-2.43v-44.7a2.434,2.434,0,0,1,2.43-2.43Z" transform="translate(-68.775 -52.359)" fill="#837683" fill-rule="evenodd"/>
          <path id="Trazado_906765" data-name="Trazado 906765" d="M393.932,106.55h3.135a2.434,2.434,0,0,0,2.43-2.43v-44.7a2.434,2.434,0,0,0-2.43-2.43h-3.135Z" transform="translate(-357.222 -52.359)" fill="#685e68" fill-rule="evenodd"/>
          <path id="Trazado_906766" data-name="Trazado 906766" d="M133.134,86.924H99.8a1.1,1.1,0,0,0-1.093,1.093v40.619a1.1,1.1,0,0,0,1.093,1.093h33.33a1.1,1.1,0,0,0,1.093-1.093V88.017A1.094,1.094,0,0,0,133.134,86.924Z" transform="translate(-95.332 -78.917)" fill="#eceff1" fill-rule="evenodd"/>
          <path id="Trazado_906767" data-name="Trazado 906767" d="M393.932,129.727h1.093q.052,0,.1,0a1.1,1.1,0,0,0,.99-1.088V88.016a1.1,1.1,0,0,0-.99-1.088q-.05,0-.1,0h-1.093Z" transform="translate(-357.222 -78.916)" fill="#d1d1d6" fill-rule="evenodd"/>
          <path id="Trazado_906768" data-name="Trazado 906768" d="M174.24,19.161H177.7a1.073,1.073,0,0,0,1-.66,4.132,4.132,0,0,1,7.59,0,1.073,1.073,0,0,0,1,.66h3.463a1.1,1.1,0,0,1,1.092,1.093v4.132a1.1,1.1,0,0,1-1.092,1.093H174.24a1.1,1.1,0,0,1-1.093-1.093V20.253A1.1,1.1,0,0,1,174.24,19.161Z" transform="translate(-161.364 -16.002)" fill="#e3a76f" fill-rule="evenodd"/>
          <path id="Trazado_906769" data-name="Trazado 906769" d="M189.67,49.2H173.147a1.1,1.1,0,0,0,1.093,1.093h16.523a1.1,1.1,0,0,0,1.093-1.093V45.07a1.1,1.1,0,0,0-1.093-1.093v4.132A1.095,1.095,0,0,1,189.67,49.2Z" transform="translate(-161.364 -40.819)" fill="#c48958" fill-rule="evenodd"/>
        </g>
        <g id="Grupo_1113845" data-name="Grupo 1113845" transform="translate(11.533 11.956)">
          <path id="Trazado_906770" data-name="Trazado 906770" d="M172.517,133.416a8.2,8.2,0,0,0,1,2.4l-.693,1.56,1.838,1.838,1.559-.693a8.2,8.2,0,0,0,2.4,1l.612,1.591h2.6l.613-1.592a8.2,8.2,0,0,0,2.4-1l1.56.693,1.838-1.838-.693-1.559a8.2,8.2,0,0,0,1-2.4l1.591-.612v-2.6l-1.592-.613a8.2,8.2,0,0,0-1-2.4l.693-1.56-1.838-1.838-1.559.693a8.2,8.2,0,0,0-2.4-1l-.612-1.591h-2.6l-.613,1.592a8.2,8.2,0,0,0-2.4,1l-1.56-.693-1.838,1.838.693,1.56a8.2,8.2,0,0,0-1,2.4l-1.592.613v2.6Z" transform="translate(-170.925 -121.899)" fill="#ffe177" fill-rule="evenodd"/>
          <path id="Trazado_906771" data-name="Trazado 906771" d="M213.15,138.959l.574.255,1.838-1.838-.693-1.559a8.2,8.2,0,0,0,1-2.4l1.591-.612v-2.6l-1.592-.613a8.2,8.2,0,0,0-1-2.4l.693-1.56-1.838-1.838-.574.255,1.583,1.583-.693,1.56a8.2,8.2,0,0,1,1,2.4l1.592.613v2.6l-1.591.612a8.2,8.2,0,0,1-1,2.4l.693,1.559Zm-4.828,2.149h.829l.613-1.592a8.2,8.2,0,0,0,2.4-1l-.47-.209a10.989,10.989,0,0,1-2.759,1.2Zm3.843-16.623a8.194,8.194,0,0,0-2.4-1l-.612-1.591h-.829l.612,1.591a10.993,10.993,0,0,1,2.76,1.2Zm-8.626,0-1.56-.693-.255.255,1.455.646Q203.357,124.585,203.539,124.486Zm-1.815,14.474.255.255,1.559-.693q-.182-.1-.359-.209Z" transform="translate(-198.247 -121.899)" fill="#ffd064" fill-rule="evenodd"/>
          <circle id="Elipse_11911" data-name="Elipse 11911" cx="4.534" cy="4.534" r="4.534" transform="translate(3.691 12.062) rotate(-67.486)" fill="#eceff1"/>
          <path id="Trazado_906772" data-name="Trazado 906772" d="M215.841,171.348a4.534,4.534,0,0,1,4.534-4.534c.107,0,.213,0,.318.011a4.534,4.534,0,0,0,0,9.045c-.1.007-.211.011-.318.011A4.534,4.534,0,0,1,215.841,171.348Z" transform="translate(-210.77 -161.743)" fill="#d1d1d6" fill-rule="evenodd"/>
        </g>
      </g>
      <path id="Trazado_906773" data-name="Trazado 906773" d="M74.1,29.787l1.01-.391a.9.9,0,0,0,.553-.633,7.278,7.278,0,0,1,.887-2.136.921.921,0,0,0,.058-.84l-.441-.994.962-.961.988.442a.914.914,0,0,0,.845-.056,7.2,7.2,0,0,1,2.131-.886.9.9,0,0,0,.638-.554l.388-1.013h1.36l.388,1.013a.9.9,0,0,0,.632.554,7.172,7.172,0,0,1,2.136.886.918.918,0,0,0,.845.056l.988-.442.962.961-.441.993a.924.924,0,0,0,.058.841,7.265,7.265,0,0,1,.887,2.136.9.9,0,0,0,.553.633l1.015.391v1.359l-1.015.389a.906.906,0,0,0-.553.633,7.285,7.285,0,0,1-.887,2.136.92.92,0,0,0-.058.84l.441.994-.962.961-.988-.441a.9.9,0,0,0-.84.056A7.288,7.288,0,0,1,84.5,37.6a.906.906,0,0,0-.632.554l-.388,1.013h-1.36l-.388-1.013A.9.9,0,0,0,81.1,37.6a7.284,7.284,0,0,1-2.131-.885.912.912,0,0,0-.845-.056l-.988.441-.962-.961.441-.993a.92.92,0,0,0-.058-.84,7.3,7.3,0,0,1-.887-2.137.906.906,0,0,0-.553-.633l-1.01-.389Zm-1.228-1.463a.9.9,0,0,0-.579.842v2.6a.9.9,0,0,0,.579.843l1.158.447a9.032,9.032,0,0,0,.739,1.777l-.5,1.139a.9.9,0,0,0,.186,1l1.839,1.838a.9.9,0,0,0,1,.188l1.137-.506a9.178,9.178,0,0,0,1.78.736l.446,1.162a.9.9,0,0,0,.84.579h2.6a.9.9,0,0,0,.84-.578l.446-1.163a9.178,9.178,0,0,0,1.78-.736L88.307,39a.9.9,0,0,0,1-.188l1.839-1.838a.9.9,0,0,0,.186-1.006l-.5-1.138a9.032,9.032,0,0,0,.739-1.777l1.158-.447a.9.9,0,0,0,.579-.843v-2.6a.9.9,0,0,0-.579-.842l-1.158-.447a8.994,8.994,0,0,0-.739-1.778l.5-1.138a.9.9,0,0,0-.186-1.006l-1.839-1.838a.9.9,0,0,0-1-.187l-1.137.506a9.246,9.246,0,0,0-1.78-.737l-.446-1.162a.9.9,0,0,0-.84-.579H81.5a.9.9,0,0,0-.84.579L80.214,21.7a9.246,9.246,0,0,0-1.78.737L77.3,21.93a.9.9,0,0,0-1,.187l-1.839,1.838a.9.9,0,0,0-.186,1.006l.5,1.139a8.957,8.957,0,0,0-.739,1.777ZM82.8,26.836a3.631,3.631,0,1,0,3.629,3.63A3.632,3.632,0,0,0,82.8,26.836Zm0,9.068a5.437,5.437,0,1,0-5.436-5.437A5.444,5.444,0,0,0,82.8,35.9ZM96.049,55.565a.9.9,0,0,1-.9.9H81.324a.9.9,0,1,1,0-1.806H95.146A.9.9,0,0,1,96.049,55.565Zm0-4.385a.9.9,0,0,1-.9.9H81.324a.9.9,0,1,1,0-1.806H95.146A.9.9,0,0,1,96.049,51.18Zm0-3.919a.9.9,0,0,1-.9.9H81.324a.9.9,0,1,1,0-1.807H95.146A.9.9,0,0,1,96.049,47.261ZM81.324,41.973H95.146a.9.9,0,0,1,0,1.807H81.324a.9.9,0,0,1,0-1.807Zm-3.667,8.6a.9.9,0,0,1-.064,1.276l-4.83,4.385A.9.9,0,0,1,71.52,56.2l-1.993-1.989a.9.9,0,1,1,1.281-1.277l1.376,1.381,4.2-3.807a.9.9,0,0,1,1.276.062Zm0-8.3a.9.9,0,0,1-.064,1.276l-4.83,4.385a.9.9,0,0,1-1.243-.03L69.527,45.91a.9.9,0,0,1,1.281-1.277l1.376,1.381,4.2-3.806a.9.9,0,0,1,1.276.061ZM83.9,12.291A1.095,1.095,0,1,1,82.8,11.2,1.1,1.1,0,0,1,83.9,12.291Zm19.141,48.376v-44.7a1.529,1.529,0,0,0-1.53-1.526H93.057v1.572h7.5a.9.9,0,0,1,.9.9v42.8a.9.9,0,0,1-.9.9H65.042a.9.9,0,0,1-.9-.9v-42.8a.9.9,0,0,1,.9-.9h7.5V14.436H64.091a1.528,1.528,0,0,0-1.525,1.526v44.7a1.528,1.528,0,0,0,1.525,1.526h37.416a1.529,1.529,0,0,0,1.53-1.526ZM92.154,19.284H73.449a.9.9,0,0,1-.9-.9v-.565h-6.6v41H99.657v-41h-6.6v.565A.9.9,0,0,1,92.154,19.284Zm-17.8-6.317v4.511h16.9V12.967H86.819a.908.908,0,0,1-.882-.692,3.226,3.226,0,0,0-6.27,0,.908.908,0,0,1-.882.692Zm27.154-.337H93.057v-.565a.9.9,0,0,0-.9-.9H87.472a5.033,5.033,0,0,0-9.342,0H73.449a.9.9,0,0,0-.9.9v.565H64.091a3.338,3.338,0,0,0-3.332,3.333v44.7A3.338,3.338,0,0,0,64.091,64h37.416a3.339,3.339,0,0,0,3.337-3.332v-44.7a3.34,3.34,0,0,0-3.337-3.333Z" fill-rule="evenodd"/>
    </g>
  </g>
</svg>
