<svg xmlns="http://www.w3.org/2000/svg" xmlns:xlink="http://www.w3.org/1999/xlink" width="108.914" height="108.914" viewBox="0 0 108.914 108.914">
  <defs>
    <filter id="Trazado_874925" x="0" y="0" width="108.914" height="108.914" filterUnits="userSpaceOnUse">
      <feOffset dy="3" input="SourceAlpha"/>
      <feGaussianBlur stdDeviation="3" result="blur"/>
      <feFlood flood-opacity="0.161"/>
      <feComposite operator="in" in2="blur"/>
      <feComposite in="SourceGraphic"/>
    </filter>
  </defs>
  <g id="Grupo_1113858" data-name="Grupo 1113858" transform="translate(6269 9038)">
    <g transform="matrix(1, 0, 0, 1, -6269, -9038)" filter="url(#Trazado_874925)">
      <g id="Trazado_874925-2" data-name="Trazado 874925" transform="translate(9 6)" fill="#fecfb5" opacity="0.859">
        <path d="M 45.45676803588867 89.41407012939453 C 39.52198028564453 89.41407012939453 33.76551818847656 88.25206756591797 28.34726715087891 85.96034240722656 C 23.11311721801758 83.74648284912109 18.41204261779785 80.57682800292969 14.37464332580566 76.5394287109375 C 10.33724308013916 72.50202941894531 7.167593002319336 67.80095672607422 4.953730583190918 62.56679534912109 C 2.662005424499512 57.14855575561523 1.500005483627319 51.39208221435547 1.500005483627319 45.45729446411133 C 1.500005483627319 39.52198028564453 2.662005424499512 33.76551818847656 4.953730583190918 28.34726905822754 C 7.167593002319336 23.11310577392578 10.33724308013916 18.41203117370605 14.37464332580566 14.37464332580566 C 18.41204261779785 10.33724403381348 23.11311721801758 7.167593955993652 28.34726715087891 4.953731060028076 C 33.76551818847656 2.662006139755249 39.52198028564453 1.500006198883057 45.45676803588867 1.500006198883057 C 51.39155578613281 1.500006198883057 57.14802932739258 2.662006139755249 62.56626892089844 4.953731060028076 C 67.80043029785156 7.167593955993652 72.50150299072266 10.33724403381348 76.53890228271484 14.37464332580566 C 80.57630920410156 18.41203117370605 83.74595642089844 23.11310577392578 85.95981597900391 28.34726905822754 C 88.25154113769531 33.76551818847656 89.41354370117188 39.52198028564453 89.41354370117188 45.45676803588867 C 89.41354370117188 51.39208221435547 88.25154113769531 57.14855575561523 85.95981597900391 62.56679534912109 C 83.74595642089844 67.80095672607422 80.57630920410156 72.50202941894531 76.53890228271484 76.5394287109375 C 72.50150299072266 80.57682800292969 67.80043029785156 83.74648284912109 62.56626892089844 85.96034240722656 C 57.14802932739258 88.25206756591797 51.39155578613281 89.41407012939453 45.45676803588867 89.41407012939453 Z" stroke="none"/>
        <path d="M 45.45676803588867 3 C 39.72381210327148 3 34.1639404296875 4.12213134765625 28.93159484863281 6.335227966308594 C 23.87622833251953 8.473472595214844 19.33542633056641 11.53517150878906 15.43529510498047 15.435302734375 C 11.53517150878906 19.33543395996094 8.473464965820312 23.87622833251953 6.335227966308594 28.93160247802734 C 4.122123718261719 34.16394424438477 3 39.72381591796875 3 45.4572868347168 C 3 51.19024658203125 4.122123718261719 56.75011825561523 6.335227966308594 61.98246002197266 C 8.473464965820312 67.03782653808594 11.53517150878906 71.57862854003906 15.43529510498047 75.478759765625 C 19.33542633056641 79.37889099121094 23.87622833251953 82.44058990478516 28.93159484863281 84.57883453369141 C 34.1639404296875 86.79193115234375 39.72381210327148 87.9140625 45.45676803588867 87.9140625 C 51.18972396850586 87.9140625 56.74959564208984 86.79193115234375 61.98194122314453 84.57883453369141 C 67.03730773925781 82.44058990478516 71.57810974121094 79.37889099121094 75.47824096679688 75.478759765625 C 79.37837219238281 71.57862854003906 82.44007110595703 67.03782653808594 84.57830810546875 61.98246002197266 C 86.79141235351562 56.75011825561523 87.91353607177734 51.19024658203125 87.91353607177734 45.4567756652832 C 87.91353607177734 39.72381591796875 86.79141235351562 34.16394424438477 84.57830810546875 28.93160247802734 C 82.44007110595703 23.87622833251953 79.37837219238281 19.33543395996094 75.47824096679688 15.435302734375 C 71.57810974121094 11.53517150878906 67.03730773925781 8.473472595214844 61.98194122314453 6.335227966308594 C 56.74959564208984 4.12213134765625 51.18972396850586 3 45.45676803588867 3 M 45.45676803588867 0 C 70.56185150146484 0 90.91353607177734 20.35169219970703 90.91353607177734 45.4567756652832 L 90.91353607177734 45.4572868347168 C 90.91353607177734 70.5623779296875 70.56185150146484 90.9140625 45.45676803588867 90.9140625 C 20.3516845703125 90.9140625 0 70.5623779296875 0 45.4572868347168 L 0 45.4567756652832 C 0 20.35169219970703 20.3516845703125 0 45.45676803588867 0 Z" stroke="none" fill="#fff"/>
      </g>
    </g>
    <g id="Grupo_1113857" data-name="Grupo 1113857" transform="translate(-6248.984 -9021.417)">
      <g id="Grupo_1113856" data-name="Grupo 1113856" transform="translate(8.826 9.257)">
        <g id="Grupo_1113851" data-name="Grupo 1113851" transform="translate(14.781 13.114)">
          <path id="Trazado_906780" data-name="Trazado 906780" d="M163.2,148.3a3.945,3.945,0,0,1,1.606-6.978l-1.026,3.83,1.454,1.454,1.986-.532,1.026-3.83a3.945,3.945,0,0,1-2.1,6.846l-3,11.195a3.945,3.945,0,0,1-1.606,6.978l1.026-3.83-1.454-1.454-1.986.532-1.026,3.83a3.945,3.945,0,0,1,2.1-6.846Z" transform="translate(-156.785 -141.324)" fill="#9facba" fill-rule="evenodd"/>
          <path id="Trazado_906781" data-name="Trazado 906781" d="M168.536,147.684l-.035-.043.038.03Zm1.361-6.064a3.95,3.95,0,0,1,.878-.3l-1.026,3.83.824.824h0l-1.454-1.454Zm4.3.691a3.944,3.944,0,0,1-2.711,6.15l-3,11.207a3.944,3.944,0,0,1,.634.617l3-11.194a3.945,3.945,0,0,0,2.1-6.846Zm-5.042,18.005a3.945,3.945,0,0,1-1.644,6.948l.248-.926a3.943,3.943,0,0,0,1.4-6.021Zm-2.072,1.664-1.986.532-1.026,3.83a3.947,3.947,0,0,1-.613-.7l1.009-3.764,1.986-.532Z" transform="translate(-162.758 -141.323)" fill="#8d9ca8" fill-rule="evenodd"/>
        </g>
        <g id="Grupo_1113852" data-name="Grupo 1113852" transform="translate(0 14.84)">
          <path id="Trazado_906782" data-name="Trazado 906782" d="M16.36,267.88a2.106,2.106,0,0,0,2.917.559l6.6-4.479a2.1,2.1,0,1,0-2.358-3.475l-6.6,4.479A2.106,2.106,0,0,0,16.36,267.88Z" transform="translate(-16 -249.378)" fill="#60b7ff" fill-rule="evenodd"/>
          <path id="Trazado_906783" data-name="Trazado 906783" d="M62.528,267.347l4.993-3.388a2.1,2.1,0,0,0-2.358-3.475l-1.488,1.01Z" transform="translate(-57.643 -249.377)" fill="#41a8fc" fill-rule="evenodd"/>
          <path id="Trazado_906784" data-name="Trazado 906784" d="M53.2,258.949l-.746,4.384-.265,1.6,5.621,3.74a2.288,2.288,0,0,1,1.03,1.632L59.368,274a2.1,2.1,0,1,1-4.153.6l-.413-2.89-3.458-2.3-1.837,7.916a2.1,2.1,0,0,1-4.081-.951l4.129-21.084a2.1,2.1,0,0,1,3.114-1.477c3.084,1.769,5.512,3.126,8.621,4.859a2.1,2.1,0,1,1-2.046,3.66C56.988,261.073,55.425,260.225,53.2,258.949Z" transform="translate(-42.288 -243.477)" fill="#8ac9fe" fill-rule="evenodd"/>
          <path id="Trazado_906785" data-name="Trazado 906785" d="M56.9,276.358a2.1,2.1,0,0,1-1.682-1.761l-.413-2.89-2.3-1.529.022-.1,3.458,2.3.413,2.89a2.087,2.087,0,0,0,.5,1.085Zm-9.824,2.547a2.093,2.093,0,0,1-.466-1.857l4.129-21.084a2.1,2.1,0,0,1,3.114-1.477c2.756,1.581,4.988,2.832,7.649,4.317a2.1,2.1,0,0,0-.21-.134c-3.109-1.733-5.537-3.09-8.621-4.859a2.1,2.1,0,0,0-3.114,1.477l-4.129,21.084a2.1,2.1,0,0,0,1.565,2.516l.082.017Z" transform="translate(-42.289 -243.477)" fill="#60b7ff" fill-rule="evenodd"/>
          <path id="Trazado_906786" data-name="Trazado 906786" d="M52.189,362.11l5.621,3.74a2.288,2.288,0,0,1,1.03,1.632l.529,3.694a2.1,2.1,0,1,1-4.153.6l-.413-2.89-3.458-2.3L49.508,374.5a2.1,2.1,0,0,1-4.081-.951l2.241-11.442h4.521Z" transform="translate(-42.288 -340.656)" fill="#a79ba7" fill-rule="evenodd"/>
          <path id="Trazado_906787" data-name="Trazado 906787" d="M56.9,373.538a2.1,2.1,0,0,1-1.682-1.761l-.413-2.89-3.458-2.3-.017-.369,4.617,3.072.452,3.164a2.088,2.088,0,0,0,.5,1.085Zm-9.824,2.547-.082-.017a2.1,2.1,0,0,1-1.565-2.516l2.241-11.442h1.314l-2.373,12.118A2.093,2.093,0,0,0,47.074,376.085Z" transform="translate(-42.288 -340.656)" fill="#837683" fill-rule="evenodd"/>
          <circle id="Elipse_11912" data-name="Elipse 11912" cx="3.519" cy="3.519" r="3.519" transform="translate(7.319 4.976) rotate(-45)" fill="#f6dccd"/>
          <path id="Trazado_906788" data-name="Trazado 906788" d="M103.148,171.649a3.519,3.519,0,1,0,.525,7,3.52,3.52,0,0,1,0-6.96A3.573,3.573,0,0,0,103.148,171.649Z" transform="translate(-90.849 -170.191)" fill="#f1cbbc" fill-rule="evenodd"/>
        </g>
        <g id="Grupo_1113853" data-name="Grupo 1113853" transform="translate(11.596 47.007)">
          <path id="Trazado_906789" data-name="Trazado 906789" d="M127.078,464.154h6.061a.632.632,0,0,1,.63.63v2.04a.632.632,0,0,1-.63.63h-6.061a.632.632,0,0,1-.63-.63v-2.04A.632.632,0,0,1,127.078,464.154Z" transform="translate(-126.448 -464.154)" fill="#9facba" fill-rule="evenodd"/>
          <path id="Trazado_906790" data-name="Trazado 906790" d="M132.718,464.154h.42a.632.632,0,0,1,.63.63v2.04a.632.632,0,0,1-.63.63h-6.061a.632.632,0,0,1-.63-.63v-.42h5.641a.632.632,0,0,0,.63-.63v-1.62Z" transform="translate(-126.447 -464.154)" fill="#8d9ca8" fill-rule="evenodd"/>
        </g>
        <g id="Grupo_1113854" data-name="Grupo 1113854" transform="translate(30.696 20.623)">
          <path id="Trazado_906791" data-name="Trazado 906791" d="M311.069,226.075h7.821v-12.6a.631.631,0,0,1,.63-.63h4.752a.631.631,0,0,1,.63.63v12.6l2.891,1.937a.613.613,0,0,1,.279.523V241.9a.631.631,0,0,1-.63.63H311.069V241.3h-2.7v-2.656h2.7v-3.013h-2.7v-2.656h2.7V229.96h-2.7V227.3h2.7Z" transform="translate(-308.374 -212.844)" fill="#9facba" fill-rule="evenodd"/>
          <path id="Trazado_906792" data-name="Trazado 906792" d="M323.852,212.844h.42a.631.631,0,0,1,.63.63v12.6l-1.05-.7Zm3.17,14.651.771.516a.613.613,0,0,1,.279.523V241.9a.631.631,0,0,1-.63.63H311.069v-1.05h15.323a.631.631,0,0,0,.63-.63Zm-15.953,13.8v-1.05h-2.7v1.05Zm0-5.669v-1.05h-2.7v1.05Zm0-5.669v-1.05h-2.7v1.05Z" transform="translate(-308.374 -212.844)" fill="#8d9ca8" fill-rule="evenodd"/>
          <path id="Trazado_906793" data-name="Trazado 906793" d="M465.8,338.864v16.454h2.54a.631.631,0,0,0,.63-.63V341.325a.614.614,0,0,0-.279-.523Z" transform="translate(-449.276 -325.633)" fill="#8192a5" fill-rule="evenodd"/>
          <path id="Trazado_906794" data-name="Trazado 906794" d="M465.8,366.381v1.05h2.54a.631.631,0,0,0,.63-.63V353.438a.613.613,0,0,0-.279-.523l-.771-.517v13.353a.631.631,0,0,1-.63.63Z" transform="translate(-449.276 -337.747)" fill="#65788e" fill-rule="evenodd"/>
          <path id="Trazado_906795" data-name="Trazado 906795" d="M345.131,223.269h-3.783a.632.632,0,0,0-.63.63v8.727a.632.632,0,0,0,.63.63h3.783a.632.632,0,0,0,.63-.63V223.9A.632.632,0,0,0,345.131,223.269Z" transform="translate(-337.322 -222.174)" fill="#8d9ca8" fill-rule="evenodd"/>
          <path id="Trazado_906796" data-name="Trazado 906796" d="M345.131,223.269h-.42v8.307a.632.632,0,0,1-.63.63h-3.363v.42a.632.632,0,0,0,.63.63h3.783a.632.632,0,0,0,.63-.63V223.9A.632.632,0,0,0,345.131,223.269Z" transform="translate(-337.322 -222.174)" fill="#8192a5" fill-rule="evenodd"/>
        </g>
        <g id="Grupo_1113855" data-name="Grupo 1113855" transform="translate(27.415 0)">
          <path id="Trazado_906797" data-name="Trazado 906797" d="M288.993,18.057a8.446,8.446,0,0,1,2.473,1.025l1.607-.714,1.894,1.894-.714,1.607a8.447,8.447,0,0,1,1.026,2.474l1.64.631v2.679l-1.64.631a8.446,8.446,0,0,1-1.025,2.473l.714,1.607-1.894,1.894-1.607-.713a8.447,8.447,0,0,1-2.474,1.025l-.631,1.64h-2.679l-.631-1.64a8.445,8.445,0,0,1-2.473-1.025l-1.607.714-1.894-1.894.714-1.607a8.447,8.447,0,0,1-1.025-2.474l-1.64-.631V24.974l1.64-.631a8.444,8.444,0,0,1,1.025-2.473l-.714-1.607,1.894-1.894,1.607.714a8.445,8.445,0,0,1,2.473-1.025l.631-1.64h2.679Z" transform="translate(-277.126 -16.417)" fill="#ffe177" fill-rule="evenodd"/>
          <path id="Trazado_906798" data-name="Trazado 906798" d="M313.251,33.542l-1.607.714-.247-.247,1.507-.669Q313.075,33.445,313.251,33.542Zm6.414-15.487a8.445,8.445,0,0,1,2.473,1.025l-.457.2a11.144,11.144,0,0,0-2.821-1.228l-.631-1.64h.8Zm2.474,15.487a8.447,8.447,0,0,1-2.474,1.025l-.631,1.64h-.8l.631-1.64a11.129,11.129,0,0,0,2.821-1.228ZM311.4,18.614l.247-.247,1.607.714q-.176.1-.348.2Zm11.791,0,.557-.247,1.894,1.894-.714,1.607a8.448,8.448,0,0,1,1.026,2.474l1.64.631v2.679l-1.64.631a8.446,8.446,0,0,1-1.025,2.473l.714,1.607-1.894,1.894-.557-.247,1.647-1.647-.714-1.607a8.449,8.449,0,0,0,1.025-2.473l1.64-.631V24.972l-1.64-.631a8.446,8.446,0,0,0-1.025-2.474l.713-1.607Z" transform="translate(-307.799 -16.415)" fill="#ffd064" fill-rule="evenodd"/>
          <circle id="Elipse_11913" data-name="Elipse 11913" cx="4.671" cy="4.671" r="4.671" transform="translate(3.481 8.372) rotate(-31.72)" fill="#eceff1"/>
          <path id="Trazado_906799" data-name="Trazado 906799" d="M331.564,66.184a4.671,4.671,0,1,0,0,9.342q.188,0,.372-.015a4.671,4.671,0,0,1,0-9.313Q331.752,66.184,331.564,66.184Z" transform="translate(-321.668 -60.959)" fill="#d1d1d6" fill-rule="evenodd"/>
        </g>
      </g>
      <path id="Trazado_906800" data-name="Trazado 906800" d="M47.119,40.121h-3.36V31.813h3.36Zm.84-9.987h-5.04a.84.84,0,0,0-.84.84v9.988a.84.84,0,0,0,.84.84h5.04a.84.84,0,0,0,.84-.84V30.973a.84.84,0,0,0-.84-.84ZM46.136,15.321a3.832,3.832,0,1,1-3.83,3.832,3.838,3.838,0,0,1,3.83-3.832Zm0,9.343a5.511,5.511,0,1,0-5.51-5.511A5.521,5.521,0,0,0,46.136,24.664Zm-6.513-1.508a.858.858,0,0,1,.054.782l-.484,1.079L40.275,26.1l1.077-.48a.839.839,0,0,1,.781.052,7.654,7.654,0,0,0,2.229.924.831.831,0,0,1,.588.514l.425,1.1H46.9l.42-1.1a.85.85,0,0,1,.593-.515,7.627,7.627,0,0,0,2.229-.924.839.839,0,0,1,.781-.052L52,26.1l1.077-1.078-.479-1.08a.856.856,0,0,1,.054-.781,7.627,7.627,0,0,0,.924-2.227.843.843,0,0,1,.514-.59l1.1-.424V18.39l-1.1-.423a.842.842,0,0,1-.514-.59,7.616,7.616,0,0,0-.924-2.228.857.857,0,0,1-.054-.781l.479-1.079L52,12.21l-1.077.479a.846.846,0,0,1-.786-.052,7.509,7.509,0,0,0-2.224-.924.85.85,0,0,1-.593-.516l-.42-1.1H45.375l-.425,1.1a.833.833,0,0,1-.588.516,7.6,7.6,0,0,0-2.229.924.837.837,0,0,1-.781.052l-1.077-.479-1.082,1.078.484,1.079a.859.859,0,0,1-.054.782,7.627,7.627,0,0,0-.924,2.227.841.841,0,0,1-.514.59l-1.1.423v1.526l1.1.424a.842.842,0,0,1,.514.589A7.614,7.614,0,0,0,39.623,23.156Zm.806,4.709,1.216-.54a9.314,9.314,0,0,0,1.893.786l.479,1.239a.836.836,0,0,0,.781.539H47.48a.836.836,0,0,0,.781-.539l.479-1.239a9.322,9.322,0,0,0,1.893-.785l1.216.539a.838.838,0,0,0,.934-.173L54.675,25.8a.844.844,0,0,0,.178-.935l-.544-1.215a8.845,8.845,0,0,0,.786-1.9l1.24-.477a.838.838,0,0,0,.539-.784V17.813a.836.836,0,0,0-.539-.783l-1.24-.478a8.876,8.876,0,0,0-.786-1.9l.544-1.214a.843.843,0,0,0-.178-.934l-1.893-1.894a.841.841,0,0,0-.934-.174l-1.216.54a9.274,9.274,0,0,0-1.893-.785l-.479-1.24a.836.836,0,0,0-.781-.538H44.8a.836.836,0,0,0-.781.538l-.479,1.24a9.274,9.274,0,0,0-1.893.785l-1.216-.54a.839.839,0,0,0-.934.174L37.6,12.508a.843.843,0,0,0-.178.934l.539,1.214a9.12,9.12,0,0,0-.781,1.9l-1.24.478a.836.836,0,0,0-.539.783v2.679a.838.838,0,0,0,.539.783l1.24.477a9.1,9.1,0,0,0,.781,1.9l-.539,1.214a.844.844,0,0,0,.178.935l1.893,1.894a.838.838,0,0,0,.934.173ZM58.381,58.724H56.889V44.684l1.492,1Zm-16.164-1.23a.84.84,0,0,1,.84.84v.391H55.209v-28H50.88V43.11a.84.84,0,0,1-.84.84H43.057v.39a.84.84,0,0,1-.84.84H40.364v.976h1.853a.84.84,0,0,1,.84.84v3.013a.84.84,0,0,1-.84.84H40.364v.975h1.853a.84.84,0,0,1,.84.84v3.014a.84.84,0,0,1-.84.84H40.364v.975h1.853ZM59.691,44.537l-2.8-1.875V29.879a.84.84,0,0,0-.84-.84H50.04a.84.84,0,0,0-.84.84V42.27H42.217a.84.84,0,0,0-.84.84v.39H39.524a.84.84,0,0,0-.84.84V47a.84.84,0,0,0,.84.84h1.853v1.333H39.524a.84.84,0,0,0-.84.84v2.655a.84.84,0,0,0,.84.84h1.853v1.334H39.524a.84.84,0,0,0-.84.84v2.655a.84.84,0,0,0,.84.84h1.853v.39a.84.84,0,0,0,.84.84h17a.84.84,0,0,0,.84-.84V45.234A.837.837,0,0,0,59.691,44.537ZM21.126,26.394a2.679,2.679,0,1,1-2.678,2.679A2.682,2.682,0,0,1,21.126,26.394Zm0,7.038a4.359,4.359,0,1,0-4.358-4.359A4.365,4.365,0,0,0,21.126,33.432Zm14.306-6.4a3.1,3.1,0,0,1-2.58,2.273.841.841,0,0,0-.7.615l-2.673,9.984A2.911,2.911,0,0,0,28.4,38.651l2.436-9.086a.84.84,0,0,0-.3-.881,3.117,3.117,0,0,1-.2-4.743l-.544,2.04a.836.836,0,0,0,.217.812l1.453,1.454a.838.838,0,0,0,.81.217l1.987-.532a.828.828,0,0,0,.593-.594L35.4,25.3a3.086,3.086,0,0,1,.035,1.734ZM30.55,45.254a3.126,3.126,0,0,1-.9,1.486L30.2,44.7a.836.836,0,0,0-.217-.811l-.9-.9a2.75,2.75,0,0,0,.292-.43,3.211,3.211,0,0,0,.208-.455,3.1,3.1,0,0,1,.973,3.156Zm-5.96.128a3.086,3.086,0,0,1-.035-1.734,2.872,2.872,0,0,1,.119-.354l.41.23Zm-4.433-6.543c1.562.9,2.777,1.571,4.186,2.35l1.848,1.028a1.256,1.256,0,0,0,1.71-.484,1.218,1.218,0,0,0,.114-.954,1.24,1.24,0,0,0-.593-.755c-3.123-1.739-5.564-3.106-8.633-4.863a1.234,1.234,0,0,0-1.161-.047,1.248,1.248,0,0,0-.707.931v.025L12.79,57.153c0,.011,0,.02,0,.03a1.258,1.258,0,0,0,.939,1.508,1.259,1.259,0,0,0,1.507-.938l1.833-7.916a.841.841,0,0,1,1.285-.509l3.459,2.3a.845.845,0,0,1,.366.58l.41,2.89a1.474,1.474,0,0,0,.094.325h2.3a1.253,1.253,0,0,0,.094-.686l-.529-3.7a1.444,1.444,0,0,0-.662-1.052l-5.619-3.741a.837.837,0,0,1-.366-.836l1.013-5.986a.826.826,0,0,1,.469-.618A.837.837,0,0,1,20.158,38.839ZM26.9,58.724H21.265V57.1H26.9ZM11.633,42.462a1.261,1.261,0,0,1-1.418-2.085L15,37.133l-.687,3.512Zm23.992-19.8a4.786,4.786,0,0,1-1.982,8.193L30.916,41.046a4.788,4.788,0,0,1-2.382,8.087.841.841,0,0,1-.983-1.039l.9-3.362-.766-.769-1.053.281-.9,3.362a.841.841,0,0,1-1.374.407A4.763,4.763,0,0,1,23.2,42.475c-.954-.529-1.838-1.021-2.832-1.583l-.721,4.26,5.169,3.438a3.128,3.128,0,0,1,1.4,2.213L26.74,54.5a2.906,2.906,0,0,1-.015.926h1.018a.84.84,0,0,1,.84.84v3.3a.84.84,0,0,1-.84.84H20.424a.84.84,0,0,1-.84-.84v-3.3a.84.84,0,0,1,.84-.84h.514l-.015-.087-.361-2.519L18.428,51.4l-1.562,6.736a2.944,2.944,0,0,1-2.861,2.27,2.936,2.936,0,0,1-2.861-3.585l2.708-13.831-1.275.866a2.941,2.941,0,0,1-3.306-4.865L15.73,34.6a2.944,2.944,0,0,1,3.9-.9c2.6,1.491,4.754,2.7,7.254,4.1l2.189-8.166a4.784,4.784,0,0,1,2.377-8.086.841.841,0,0,1,.988,1.039l-.9,3.361.771.768,1.048-.281.9-3.361a.837.837,0,0,1,1.369-.409Z" fill-rule="evenodd"/>
    </g>
  </g>
</svg>
